<svg id="Layer_1" data-name="Layer 1" xmlns="http://www.w3.org/2000/svg" viewBox="0 0 835.28 376.7"><defs><style>.cls-1{fill:#034b4e;}.cls-2{fill:#fff;}.cls-3{fill:#03b698;}.cls-4{fill:#fbb628;}</style></defs><title>banner</title><rect class="cls-1" width="835.28" height="376.7"/><path class="cls-2" d="M46.11,164.69q0,15.71-10.9,15.71a12.06,12.06,0,0,1-3.3-.45V177a10.47,10.47,0,0,0,3.36.61,6.44,6.44,0,0,0,6-3.16q1.85-3.16,1.85-9.85v-28.4h3Z"/><path class="cls-2" d="M76.9,179.65V174h-.12q-3.24,6.39-10,6.39-11,0-11-13.83V148.65h2.82v17.23q0,6.3,2.07,9.14t6.52,2.85a8.72,8.72,0,0,0,7-3.18,12.71,12.71,0,0,0,2.68-8.48V148.65h2.79v31Z"/><path class="cls-2" d="M88,178.29v-3.36a11.67,11.67,0,0,0,3.81,2.15,12,12,0,0,0,3.88.79q7.3,0,7.3-6a4.57,4.57,0,0,0-1.6-3.51,19.35,19.35,0,0,0-5.21-3,17.67,17.67,0,0,1-6.25-4A7.93,7.93,0,0,1,91,150.22a11,11,0,0,1,7.13-2.33,13.52,13.52,0,0,1,6.84,1.63v3.15a13,13,0,0,0-7.14-2.24A7.38,7.38,0,0,0,92.92,152,5.16,5.16,0,0,0,91,156.16a5.32,5.32,0,0,0,1.18,3.59q1.18,1.38,5.21,3.16a22.8,22.8,0,0,1,6.66,4,6.78,6.78,0,0,1,1.82,4.95,7.73,7.73,0,0,1-2.77,6.1q-2.77,2.41-7.64,2.41A12.64,12.64,0,0,1,88,178.29Z"/><path class="cls-2" d="M125.95,179.23a9.62,9.62,0,0,1-4.09,1q-6.87,0-6.87-8.23V151.19h-5.57v-2.54H115V140.6l1.39-.48q.73-.21,1.39-.45v9h8.17v2.54h-8.17v20.46a8.24,8.24,0,0,0,1,4.65,3.91,3.91,0,0,0,3.44,1.44,7.68,7.68,0,0,0,3.72-1.12Z"/><path class="cls-2" d="M173.87,177.35q0,8.75-3.81,12.81t-11.87,4.06a20.69,20.69,0,0,1-9.23-2.36v-2.91a19.22,19.22,0,0,0,9.29,2.72q12.84,0,12.84-13.56v-4H171a12.06,12.06,0,0,1-11.17,6.33,11.82,11.82,0,0,1-9.34-4.15q-3.62-4.15-3.62-11.56t3.91-12.11A12.73,12.73,0,0,1,161,147.89q6.84,0,9.93,5.66h.12v-4.9h2.79Zm-2.79-16.8a10.13,10.13,0,0,0-2.77-7.11,9.37,9.37,0,0,0-7.22-3,10.08,10.08,0,0,0-8.23,3.84q-3.12,3.85-3.12,10.17t2.86,9.88a9.24,9.24,0,0,0,7.55,3.53,10.27,10.27,0,0,0,8-3.24,11.31,11.31,0,0,0,3-7.93Z"/><path class="cls-2" d="M185.16,140.84a2.33,2.33,0,0,1-2.3-2.36,2,2,0,0,1,.71-1.62,2.36,2.36,0,0,1,1.59-.62,2.47,2.47,0,0,1,1.65.61,2,2,0,0,1,.71,1.63,2.38,2.38,0,0,1-2.36,2.36Zm-1.36,38.81v-31h2.79v31Z"/><path class="cls-2" d="M206.68,179.65h-2.54l-12-31h3.12l9.23,24.67a19.87,19.87,0,0,1,.94,3.24h.12a18.76,18.76,0,0,1,.88-3.12L216,148.65h3Z"/><path class="cls-2" d="M225.27,164.27q0,6.39,3,10a9.9,9.9,0,0,0,8.1,3.6A16.48,16.48,0,0,0,246.49,174v3a18.11,18.11,0,0,1-10.75,3.42,12.15,12.15,0,0,1-9.69-4.3q-3.69-4.3-3.69-12.14a17.28,17.28,0,0,1,3.86-11.43,12.43,12.43,0,0,1,10-4.65q5.78,0,8.87,4.06T248.22,163v1.24Zm20-2.54q-.18-5.36-2.57-8.33a8,8,0,0,0-6.6-3,9.68,9.68,0,0,0-7.22,2.92q-2.86,2.92-3.53,8.37Z"/><path class="cls-2" d="M274.25,140.84a2.33,2.33,0,0,1-2.3-2.36,2,2,0,0,1,.71-1.62,2.36,2.36,0,0,1,1.59-.62,2.47,2.47,0,0,1,1.65.61,2,2,0,0,1,.71,1.63,2.38,2.38,0,0,1-2.36,2.36Zm-1.36,38.81v-31h2.79v31Z"/><path class="cls-2" d="M297.87,179.23a9.62,9.62,0,0,1-4.09,1q-6.87,0-6.87-8.23V151.19h-5.57v-2.54h5.57V140.6l1.39-.48q.73-.21,1.39-.45v9h8.17v2.54h-8.17v20.46a8.23,8.23,0,0,0,1,4.65,3.91,3.91,0,0,0,3.44,1.44,7.68,7.68,0,0,0,3.72-1.12Z"/><path class="cls-2" d="M60.68,240.17H51.77v-4.38h-.12a9.94,9.94,0,0,1-9.08,5.12,9.5,9.5,0,0,1-7-2.52A9,9,0,0,1,33,231.68q0-8.88,10.51-10.25l8.28-1.1q0-5-5.42-5A18.49,18.49,0,0,0,36,218.58v-7.09a23.34,23.34,0,0,1,5.38-1.79,28.3,28.3,0,0,1,6.21-.77q13,0,13,13Zm-8.85-12.39v-2.05l-5.54.71q-4.59.59-4.59,4.14a3.42,3.42,0,0,0,1.12,2.64,4.29,4.29,0,0,0,3,1,5.57,5.57,0,0,0,4.32-1.83A6.62,6.62,0,0,0,51.83,227.78Z"/><path class="cls-2" d="M94.48,236.62h-.12v3.54H85V195h9.41v19.24h.12a11.17,11.17,0,0,1,9.92-5.33q5.9,0,9.08,4.05t3.19,11.08q0,7.62-3.72,12.24a12.13,12.13,0,0,1-9.95,4.62A9.61,9.61,0,0,1,94.48,236.62Zm-.27-12.87v3.13a7.14,7.14,0,0,0,1.7,4.88,5.53,5.53,0,0,0,4.35,1.94,5.77,5.77,0,0,0,5-2.49q1.77-2.49,1.77-7a9.56,9.56,0,0,0-1.62-5.91,5.48,5.48,0,0,0-4.63-2.13,6,6,0,0,0-4.69,2.12A8,8,0,0,0,94.21,223.76Z"/><path class="cls-2" d="M142.68,218.16a8.17,8.17,0,0,0-4-.92,5.71,5.71,0,0,0-4.8,2.25,9.81,9.81,0,0,0-1.73,6.12v14.56h-9.41v-30.5h9.41v5.66h.12q2.23-6.19,8-6.2a6.07,6.07,0,0,1,2.32.36Z"/><path class="cls-2" d="M174.22,227.6h-19.9q.48,6.64,8.37,6.64a16.34,16.34,0,0,0,8.85-2.38v6.79q-4.23,2.26-11,2.26-7.39,0-11.47-4.09T145,225.4q0-7.6,4.41-12a14.69,14.69,0,0,1,10.84-4.44q6.67,0,10.32,4t3.65,10.75Zm-8.73-5.78q0-6.55-5.3-6.55a5.06,5.06,0,0,0-3.92,1.88,8.52,8.52,0,0,0-2,4.68Z"/><path class="cls-2" d="M205.19,240.17h-8.91v-4.38h-.12a9.94,9.94,0,0,1-9.08,5.12,9.5,9.5,0,0,1-7-2.52,9,9,0,0,1-2.55-6.72q0-8.88,10.51-10.25l8.28-1.1q0-5-5.42-5a18.49,18.49,0,0,0-10.37,3.25v-7.09a23.34,23.34,0,0,1,5.38-1.79,28.3,28.3,0,0,1,6.21-.77q13,0,13,13Zm-8.85-12.39v-2.05l-5.54.71q-4.59.59-4.59,4.14a3.42,3.42,0,0,0,1.12,2.64,4.29,4.29,0,0,0,3,1,5.57,5.57,0,0,0,4.32-1.83A6.62,6.62,0,0,0,196.35,227.78Z"/><path class="cls-2" d="M243.2,240.17H231.91L222.17,225h-.12v15.13h-9.41V195h9.41v28.74h.12l9.08-14.09h11.17L231.49,224Z"/><path class="cls-2" d="M253.39,240.91a5.49,5.49,0,0,1-3.87-1.43A4.6,4.6,0,0,1,248,236a4.43,4.43,0,0,1,1.59-3.52,5.88,5.88,0,0,1,4-1.37,5.66,5.66,0,0,1,3.95,1.38,4.8,4.8,0,0,1,0,7.06A5.9,5.9,0,0,1,253.39,240.91Z"/><path class="cls-3" d="M634.1,168.68h21.23V139.17H634.1a5.4,5.4,0,0,0-5.08,5v19.49a5.4,5.4,0,0,0,5.08,5"/><rect class="cls-3" x="638.34" y="168.68" width="10.16" height="31.25"/><rect class="cls-3" x="638.34" y="217.68" width="10.16" height="23.66"/><rect class="cls-1" x="638.34" y="217.67" width="10.16" height="11"/><path class="cls-3" d="M654.49,211.76c0,3.41-3.41,5.91-6.82,5.91h-9.33a5.74,5.74,0,0,1-5.92-5.91V193.18a5.78,5.78,0,0,1,5.92-5.92h9.33c3.41,0,6.82,2.58,6.82,5.92Z"/><rect class="cls-3" x="679.13" y="184.76" width="54.29" height="30.41"/><rect class="cls-1" x="679.13" y="178.84" width="54.29" height="5.92"/><rect class="cls-3" x="655.33" y="128.17" width="100.22" height="51.5"/><path class="cls-3" d="M706.27,97.76c-17.82,0-33.13,14.34-33.13,32.08h65.42a32.18,32.18,0,0,0-32.29-32.08"/><path class="cls-4" d="M694.37,117.18a4.55,4.55,0,0,1-4.25,4.25,4.61,4.61,0,0,1-4.24-4.25,4.25,4.25,0,1,1,8.49,0"/><path class="cls-4" d="M726.66,117.18c0,1.67-2.58,4.25-4.25,4.25a4.55,4.55,0,0,1-4.24-4.25,4,4,0,0,1,4.24-4.25,4.61,4.61,0,0,1,4.25,4.25"/><path class="cls-1" d="M733.41,154.34a10.3,10.3,0,0,1-10.16,10.16H686.71c-5.08,0-10.16-5.08-10.16-10.16,0-5.92,5.08-11,10.16-11h36.54c5.91,0,10.16,5.08,10.16,11"/><path class="cls-4" d="M706.27,160.26l-.83.83a3.21,3.21,0,0,1-1.74-.83V150.1a1.86,1.86,0,0,1,1.74-1.67,2.91,2.91,0,0,1,.83,1.67Z"/><path class="cls-4" d="M700.35,160.26a3.21,3.21,0,0,1-1.74.83.82.82,0,0,1-.83-.83V150.1c0-.84,0-1.67.83-1.67a1.86,1.86,0,0,1,1.74,1.67Z"/><path class="cls-4" d="M693.53,160.26a.82.82,0,0,1-.83.83,3.21,3.21,0,0,1-1.74-.83V150.1a1.86,1.86,0,0,1,1.74-1.67c.83,0,.83.83.83,1.67Z"/><path class="cls-4" d="M687.62,160.26a3.23,3.23,0,0,1-1.74.83l-.83-.83V150.1a2.91,2.91,0,0,1,.83-1.67,1.86,1.86,0,0,1,1.74,1.67Z"/><path class="cls-4" d="M724.92,160.26a.82.82,0,0,1-.83.83,2.91,2.91,0,0,1-1.67-.83V150.1a1.8,1.8,0,0,1,1.67-1.67c.83,0,.83.83.83,1.67Z"/><path class="cls-4" d="M719,160.26a2.91,2.91,0,0,1-1.67.83l-.9-.83V150.1a2.86,2.86,0,0,1,.9-1.67A1.8,1.8,0,0,1,719,150.1Z"/><path class="cls-4" d="M712.19,160.26a.82.82,0,0,1-.84.83,2.91,2.91,0,0,1-1.67-.83V150.1a1.8,1.8,0,0,1,1.67-1.67c.84,0,.84.83.84,1.67Z"/><path class="cls-3" d="M672.31,232.92a5.78,5.78,0,0,1-5.91-5.91v-9.33c0-3.34,2.5-6.75,5.91-6.75h65.35c3.41,0,6,3.41,6,6.75V227a5.84,5.84,0,0,1-6,5.91Z"/><rect class="cls-3" x="679.96" y="232.92" width="10.16" height="61.66"/><rect class="cls-1" x="679.96" y="232.92" width="10.16" height="10.09"/><rect class="cls-3" x="724.09" y="232.92" width="9.33" height="61.66"/><rect class="cls-1" x="724.09" y="232.92" width="9.33" height="10.09"/><path class="cls-3" d="M741.07,113.84h0v10.93a5.8,5.8,0,0,0,6-5.92c0-2.5-2.57-5-6-5"/><rect class="cls-3" x="741.07" y="88.43" width="0.84" height="30.41"/><path class="cls-3" d="M671.47,113.84h0v10.93a5.8,5.8,0,0,1-6-5.92c0-2.5,2.57-5,6-5"/><rect class="cls-3" x="669.73" y="88.43" width="1.74" height="30.41"/><path class="cls-3" d="M700.35,303c0-5.92-5.15-10.09-11.06-10.09H680.8c-5.91,0-11.07,4.18-11.07,10.09Z"/><rect class="cls-1" x="669.73" y="303" width="30.62" height="5.92"/><path class="cls-3" d="M744.48,303a11.82,11.82,0,0,0-11.9-10.09h-7.66A11.8,11.8,0,0,0,713.09,303Z"/><rect class="cls-1" x="713.09" y="303" width="31.39" height="5.92"/><path class="cls-3" d="M638.34,255.67c-1.67-1.67-2.58-3.34-2.58-5a7.66,7.66,0,1,1,15.31,0c0,1.67-.84,3.34-2.58,5l5.15,5.08a15.67,15.67,0,0,0,4.25-10.09c0-8.49-6-15.24-14.48-15.24S629,242.17,629,250.66a15.32,15.32,0,0,0,4.25,10.09Z"/><path class="cls-3" d="M775,168.68H754.64V139.17H775a4.83,4.83,0,0,1,5.08,5v19.49a4.83,4.83,0,0,1-5.08,5"/><rect class="cls-3" x="761.46" y="168.68" width="9.33" height="31.25"/><rect class="cls-3" x="761.46" y="217.68" width="9.33" height="23.66"/><path class="cls-3" d="M755.54,211.76a5.74,5.74,0,0,0,5.92,5.91h9.32a5.8,5.8,0,0,0,6-5.91V193.18a5.84,5.84,0,0,0-6-5.92h-9.32a5.78,5.78,0,0,0-5.92,5.92Z"/><path class="cls-3" d="M771.62,255.67a11.1,11.1,0,0,0,1.74-5c0-4.24-3.41-7.66-6.82-7.66a7.64,7.64,0,0,0-7.66,7.66c0,1.67.91,3.34,1.74,5l-5.08,5.08a15.32,15.32,0,0,1-4.25-10.09,15.15,15.15,0,0,1,15.24-15.24c7.66,0,14.48,6.75,14.48,15.24a15.67,15.67,0,0,1-4.24,10.09Z"/></svg>