<svg id="Layer_1" data-name="Layer 1" xmlns="http://www.w3.org/2000/svg" viewBox="0 0 835.28 376.7"><defs><style>.cls-1{fill:#054b27;}.cls-2{fill:#fff;}.cls-3{fill:#aed13e;}.cls-4{fill:#168241;}.cls-5{fill:#26ae6d;}.cls-6{fill:#078544;}</style></defs><title>ReactorLandingpage</title><rect class="cls-1" width="835.28" height="376.7"/><path class="cls-2" d="M58,139V156.7H74v2.72H58v20.22H55V136.24H75.24V139Z"/><path class="cls-2" d="M95.61,180.41q-6.78,0-10.73-4.47t-4-11.61q0-7.72,4.13-12.08a14.3,14.3,0,0,1,10.88-4.36q6.63,0,10.47,4.33t3.85,12q0,7.24-3.92,11.72T95.61,180.41Zm.21-30a11.06,11.06,0,0,0-8.73,3.69q-3.25,3.69-3.25,10.26,0,6.08,3.18,9.78a10.86,10.86,0,0,0,8.69,3.69q5.6,0,8.63-3.63t3-10.08q0-6.63-3-10.17T95.83,150.43Z"/><path class="cls-2" d="M130.4,180.41q-6.78,0-10.73-4.47t-4-11.61q0-7.72,4.13-12.08a14.3,14.3,0,0,1,10.88-4.36q6.63,0,10.47,4.33t3.84,12q0,7.24-3.92,11.72T130.4,180.41Zm.21-30a11.06,11.06,0,0,0-8.73,3.69q-3.25,3.69-3.25,10.26,0,6.08,3.18,9.78a10.86,10.86,0,0,0,8.69,3.69q5.6,0,8.63-3.63t3-10.08q0-6.63-3-10.17T130.61,150.43Z"/><path class="cls-2" d="M174.75,179.65V174h-.12a11.32,11.32,0,0,1-4.48,4.66,13.07,13.07,0,0,1-6.69,1.73,11.78,11.78,0,0,1-9.34-4.18q-3.62-4.18-3.62-11.53,0-7.51,4-12.15a12.82,12.82,0,0,1,10.25-4.65q7,0,9.93,5.72h.12V133.75h2.79v45.89Zm0-18.86a10.52,10.52,0,0,0-2.74-7.34,9.47,9.47,0,0,0-7.37-3,10.11,10.11,0,0,0-8.05,3.74q-3.18,3.74-3.18,10.28t2.86,9.91a9.09,9.09,0,0,0,7.37,3.5q5.3,0,8.21-3.28a11.66,11.66,0,0,0,2.91-8Z"/><path class="cls-2" d="M218,136.69a5.45,5.45,0,0,0-3.39-.88q-5.72,0-5.72,7.69v5.15h8.2v2.54h-8.2v28.46h-2.79V151.19h-5.57v-2.54h5.57v-5.39q0-4.9,2.47-7.45a8.23,8.23,0,0,1,6.16-2.54,8.12,8.12,0,0,1,3.27.58Z"/><path class="cls-2" d="M234,180.41q-6.78,0-10.73-4.47t-4-11.61q0-7.72,4.13-12.08a14.3,14.3,0,0,1,10.88-4.36q6.63,0,10.47,4.33t3.84,12q0,7.24-3.92,11.72T234,180.41Zm.21-30a11.06,11.06,0,0,0-8.73,3.69q-3.25,3.69-3.25,10.26,0,6.08,3.18,9.78a10.86,10.86,0,0,0,8.69,3.69q5.6,0,8.63-3.63t3-10.08q0-6.63-3-10.17T234.21,150.43Z"/><path class="cls-2" d="M271,151.55a5.47,5.47,0,0,0-3.27-1q-3.67,0-6.15,3.78t-2.48,10.75v14.56h-2.72v-31h2.72v6.87h.12a11.28,11.28,0,0,1,3.36-5.51,8,8,0,0,1,5.33-2,8.26,8.26,0,0,1,3.09.54Z"/><path class="cls-2" d="M306,179.22a9.62,9.62,0,0,1-4.09,1q-6.87,0-6.87-8.23V151.19h-5.57v-2.54h5.57V140.6l1.39-.48q.73-.21,1.39-.45v9H306v2.54h-8.17v20.46a8.23,8.23,0,0,0,1,4.65,3.91,3.91,0,0,0,3.44,1.44,7.68,7.68,0,0,0,3.72-1.12Z"/><path class="cls-2" d="M333.26,179.65V161.06q0-5.51-2-8.07T325,150.43a9.51,9.51,0,0,0-7,3.12q-3,3.12-3,8.93v17.17h-2.79V133.75H315v20.46h.12q3.66-6.33,10.66-6.33,5,0,7.66,3.24t2.63,9.29v19.22Z"/><path class="cls-2" d="M357.81,180.41q-6.78,0-10.73-4.47t-4-11.61q0-7.72,4.13-12.08a14.3,14.3,0,0,1,10.88-4.36q6.63,0,10.47,4.33t3.84,12q0,7.24-3.92,11.72T357.81,180.41Zm.21-30a11.06,11.06,0,0,0-8.73,3.69Q346,157.82,346,164.39q0,6.08,3.18,9.78a10.86,10.86,0,0,0,8.69,3.69q5.6,0,8.63-3.63t3-10.08q0-6.63-3-10.17T358,150.43Z"/><path class="cls-2" d="M400.62,179.65V174h-.12q-3.24,6.39-10,6.39-11,0-11-13.83V148.65h2.81v17.23q0,6.3,2.07,9.14t6.52,2.85a8.73,8.73,0,0,0,7-3.18,12.72,12.72,0,0,0,2.68-8.48V148.65h2.79v31Z"/><path class="cls-2" d="M438.13,177.35q0,8.75-3.81,12.81t-11.87,4.06a20.69,20.69,0,0,1-9.23-2.36v-2.91a19.22,19.22,0,0,0,9.29,2.72q12.83,0,12.84-13.56v-4h-.12a12.06,12.06,0,0,1-11.17,6.33,11.82,11.82,0,0,1-9.34-4.15q-3.62-4.15-3.62-11.56T415,152.58a12.73,12.73,0,0,1,10.29-4.69q6.84,0,9.93,5.66h.12v-4.9h2.79Zm-2.79-16.8a10.13,10.13,0,0,0-2.77-7.11,9.38,9.38,0,0,0-7.22-3,10.08,10.08,0,0,0-8.23,3.84Q414,158.12,414,164.45t2.86,9.88a9.25,9.25,0,0,0,7.55,3.53,10.27,10.27,0,0,0,8-3.24,11.32,11.32,0,0,0,3-7.93Z"/><path class="cls-2" d="M469.13,179.65V161.06q0-5.51-2-8.07t-6.24-2.56a9.51,9.51,0,0,0-7,3.12q-3,3.12-3,8.93v17.17h-2.79V133.75h2.79v20.46H451q3.66-6.33,10.66-6.33,5,0,7.66,3.24t2.63,9.29v19.22Z"/><path class="cls-2" d="M493.5,179.22a9.62,9.62,0,0,1-4.09,1q-6.87,0-6.87-8.23V151.19H477v-2.54h5.57V140.6l1.39-.48q.73-.21,1.39-.45v9h8.17v2.54h-8.17v20.46a8.23,8.23,0,0,0,1,4.65,3.91,3.91,0,0,0,3.44,1.44,7.68,7.68,0,0,0,3.72-1.12Z"/><path class="cls-2" d="M501.55,180.19a2.32,2.32,0,0,1-1.72-.71,2.39,2.39,0,0,1-.7-1.74,2.33,2.33,0,0,1,.7-1.74,2.37,2.37,0,0,1,1.72-.68,2.48,2.48,0,0,1,1.76.68,2.28,2.28,0,0,1,.73,1.74,2.34,2.34,0,0,1-.73,1.74A2.42,2.42,0,0,1,501.55,180.19Z"/><path class="cls-2" d="M79.68,240.17H54.24V197.46h9.62v34.91H79.68Z"/><path class="cls-2" d="M89.27,204.84a5.49,5.49,0,0,1-3.9-1.42A4.55,4.55,0,0,1,83.85,200a4.39,4.39,0,0,1,1.52-3.46,6.37,6.37,0,0,1,7.82,0,4.42,4.42,0,0,1,1.5,3.46,4.54,4.54,0,0,1-1.5,3.51A5.59,5.59,0,0,1,89.27,204.84Zm4.65,35.33H84.5v-30.5h9.41Z"/><path class="cls-2" d="M120.27,239.81a13.92,13.92,0,0,1-6.29,1.1q-9.95,0-9.95-10.33v-14H99.1v-6.94H104v-6.58l9.38-2.68v9.26h6.85v6.94h-6.85v12.33q0,4.77,3.78,4.77a6.38,6.38,0,0,0,3.07-.86Z"/><path class="cls-2" d="M152.74,227.6h-19.9q.48,6.64,8.37,6.64a16.34,16.34,0,0,0,8.85-2.38v6.79q-4.23,2.26-11,2.26-7.39,0-11.47-4.09t-4.08-11.42q0-7.6,4.41-12a14.68,14.68,0,0,1,10.84-4.44q6.67,0,10.32,4t3.65,10.75ZM144,221.82q0-6.55-5.3-6.55a5.06,5.06,0,0,0-3.92,1.88,8.52,8.52,0,0,0-2,4.68Z"/><path class="cls-2" d="M178.23,218.16a8.16,8.16,0,0,0-4-.92,5.71,5.71,0,0,0-4.79,2.25,9.81,9.81,0,0,0-1.73,6.12v14.56h-9.41v-30.5h9.41v5.66h.12q2.24-6.19,8-6.2a6.06,6.06,0,0,1,2.32.36Z"/><path class="cls-2" d="M208,240.17h-8.91v-4.38H199a9.94,9.94,0,0,1-9.08,5.12,9.5,9.5,0,0,1-7-2.52,9,9,0,0,1-2.55-6.72q0-8.88,10.51-10.25l8.28-1.1q0-5-5.42-5a18.5,18.5,0,0,0-10.37,3.25v-7.09a23.36,23.36,0,0,1,5.38-1.79,28.29,28.29,0,0,1,6.21-.77q13,0,13,13Zm-8.85-12.39v-2.05l-5.54.71Q189,227,189,230.58a3.42,3.42,0,0,0,1.12,2.64,4.29,4.29,0,0,0,3,1,5.58,5.58,0,0,0,4.32-1.83A6.62,6.62,0,0,0,199.14,227.78Z"/><path class="cls-2" d="M224.85,240.17h-9.41V195h9.41Z"/><path class="cls-2" d="M242.18,240.17h-9.41V195h9.41Z"/><path class="cls-2" d="M279.15,209.67l-12.39,32.94q-4.47,11.88-13.46,11.88a17.26,17.26,0,0,1-5.63-.77v-7.51a7.92,7.92,0,0,0,4.08,1.1,5.1,5.1,0,0,0,5.06-3.43l1.61-3.78L246,209.67h10.43l5.69,18.56a24.08,24.08,0,0,1,.83,4.08h.12a28.49,28.49,0,0,1,1-4l5.75-18.62Z"/><path class="cls-2" d="M283.76,240.91a5.49,5.49,0,0,1-3.87-1.43,4.6,4.6,0,0,1-1.55-3.51,4.43,4.43,0,0,1,1.59-3.52,5.88,5.88,0,0,1,4-1.37,5.66,5.66,0,0,1,3.95,1.38,4.8,4.8,0,0,1,0,7.06A5.9,5.9,0,0,1,283.76,240.91Z"/><path class="cls-3" d="M713.1,181.55,644.24,250l-.82-10.66,70.5-69.68Zm-3.69,39.76-57.8,58.21h-4.51l-1.23-7.38L710.64,209Zm-.87-70.91L641.78,216l-1.23-9.84,56.57-55.75H671.7l-32.79,32.79-.82-10.66,22.13-22.13H636l2.05,22.13.82,10.66,1.64,23,1.23,9.84,1.64,23.36.82,10.66,1.64,22.14,1.23,7.38h57l2.05-18.86-18.86,18.86H676.62L707,248.36l-.23,3.51.23-3.51,2.46-27.05,1.23-12.3,2.46-27.46.82-11.89,2-19.27Z"/><polygon class="cls-4" points="647.11 279.51 651.62 279.51 709.41 221.31 710.64 209.01 645.88 272.13 647.11 279.51"/><polygon class="cls-4" points="706.13 260.66 706.13 260.66 706.72 251.88 706.13 260.66"/><polygon class="cls-4" points="676.62 279.51 687.28 279.51 706.13 260.66 706.72 251.87 706.95 248.36 676.62 279.51"/><polygon class="cls-4" points="644.24 250 713.1 181.55 713.92 169.66 643.42 239.34 644.24 250"/><polygon class="cls-4" points="641.78 215.98 708.54 150.4 697.11 150.4 640.55 206.14 641.78 215.98"/><polygon class="cls-4" points="638.91 183.19 671.7 150.4 660.22 150.4 638.09 172.53 638.91 183.19"/><rect class="cls-4" x="647.93" y="94.24" width="9.02" height="37.3"/><path class="cls-4" d="M718.43,141.38v6.15H632.76v-6.15c0-3.51,3.57-6.15,7.14-6.15h72.28a5.71,5.71,0,0,1,5.35,5.27.86.86,0,0,1,.89.88"/><path class="cls-4" d="M632.76,141.38v6.15h85.67v-6.15c0-3.51-3.57-6.15-7.14-6.15H639a5.71,5.71,0,0,0-5.35,5.27.86.86,0,0,0-.89.88"/><path class="cls-3" d="M785.91,200.26c-6.31,0-12.62,2.09-16.83,5.58a28.64,28.64,0,0,0-16.83-5.58,27.31,27.31,0,0,0-27.35,27.21c0,14.65,12.62,48.83,27.35,52.32,6.31,1.39,10.52-3.49,16.83-3.49,5.61,0,10.52,4.88,16.83,3.49,14-3.49,26.65-37.67,26.65-52.32s-11.92-27.21-26.65-27.21"/><polygon class="cls-5" points="768.89 205.72 768.89 173.61 760.54 173.61 768.89 205.72"/><path class="cls-5" d="M774.67,185.49c-6.31,5.6-7.71,13.31-5.6,21a21.71,21.71,0,0,0,26.62-26.62,21.24,21.24,0,0,0-21,5.6"/><path class="cls-6" d="M768.89,206.52A22,22,0,0,0,790,200.95,21.38,21.38,0,0,0,795.68,180Z"/></svg>