<svg id="Layer_1" data-name="Layer 1" xmlns="http://www.w3.org/2000/svg" viewBox="0 0 835.28 376.7"><defs><style>.cls-1{fill:#054b27;}.cls-2{fill:#fff;}.cls-3{fill:#aed13e;}.cls-4{fill:#168241;}.cls-5{fill:#26ae6d;}.cls-6{fill:#078544;}</style></defs><title>banner</title><rect class="cls-1" width="835.28" height="376.7"/><path class="cls-2" d="M38.94,139V156.7H55v2.72h-16v20.22h-3V136.24H56.22V139Z"/><path class="cls-2" d="M76.6,180.41q-6.78,0-10.73-4.47t-4-11.61q0-7.72,4.13-12.08a14.3,14.3,0,0,1,10.88-4.36q6.63,0,10.47,4.33t3.84,12q0,7.24-3.92,11.72T76.6,180.41Zm.21-30a11.06,11.06,0,0,0-8.73,3.69q-3.25,3.69-3.25,10.26,0,6.08,3.18,9.78a10.86,10.86,0,0,0,8.69,3.69q5.6,0,8.63-3.63t3-10.08q0-6.63-3-10.17T76.81,150.43Z"/><path class="cls-2" d="M111.38,180.41q-6.78,0-10.73-4.47t-4-11.61q0-7.72,4.13-12.08a14.3,14.3,0,0,1,10.88-4.36q6.63,0,10.47,4.33t3.85,12q0,7.24-3.92,11.72T111.38,180.41Zm.21-30a11.06,11.06,0,0,0-8.73,3.69q-3.25,3.69-3.25,10.26,0,6.08,3.18,9.78a10.86,10.86,0,0,0,8.69,3.69q5.6,0,8.63-3.63t3-10.08q0-6.63-3-10.17T111.59,150.43Z"/><path class="cls-2" d="M155.73,179.65V174h-.12a11.31,11.31,0,0,1-4.48,4.66,13.06,13.06,0,0,1-6.69,1.73,11.79,11.79,0,0,1-9.34-4.18q-3.62-4.18-3.62-11.53,0-7.51,4-12.15a12.82,12.82,0,0,1,10.25-4.65q7,0,9.93,5.72h.12V133.75h2.79v45.89Zm0-18.86a10.52,10.52,0,0,0-2.74-7.34,9.47,9.47,0,0,0-7.37-3,10.11,10.11,0,0,0-8.05,3.74q-3.18,3.74-3.18,10.28t2.86,9.91a9.09,9.09,0,0,0,7.37,3.5q5.3,0,8.2-3.28a11.66,11.66,0,0,0,2.91-8Z"/><path class="cls-2" d="M199,136.69a5.45,5.45,0,0,0-3.39-.88q-5.72,0-5.72,7.69v5.15h8.21v2.54h-8.21v28.46h-2.79V151.19h-5.57v-2.54h5.57v-5.39q0-4.9,2.47-7.45a8.23,8.23,0,0,1,6.16-2.54,8.13,8.13,0,0,1,3.27.58Z"/><path class="cls-2" d="M215,180.41q-6.78,0-10.73-4.47t-4-11.61q0-7.72,4.13-12.08a14.3,14.3,0,0,1,10.88-4.36q6.63,0,10.47,4.33t3.85,12q0,7.24-3.92,11.72T215,180.41Zm.21-30a11.06,11.06,0,0,0-8.73,3.69q-3.25,3.69-3.25,10.26,0,6.08,3.18,9.78a10.86,10.86,0,0,0,8.69,3.69q5.6,0,8.63-3.63t3-10.08q0-6.63-3-10.17T215.19,150.43Z"/><path class="cls-2" d="M251.94,151.55a5.46,5.46,0,0,0-3.27-1q-3.66,0-6.14,3.78T240,165.09v14.56h-2.72v-31H240v6.87h.12a11.28,11.28,0,0,1,3.36-5.51,8,8,0,0,1,5.33-2,8.26,8.26,0,0,1,3.09.54Z"/><path class="cls-2" d="M287,179.22a9.63,9.63,0,0,1-4.09,1q-6.87,0-6.87-8.23V151.19H270.5v-2.54h5.57V140.6l1.39-.48c.48-.14.95-.29,1.39-.45v9H287v2.54h-8.17v20.46a8.24,8.24,0,0,0,1,4.65,3.91,3.91,0,0,0,3.44,1.44,7.69,7.69,0,0,0,3.72-1.12Z"/><path class="cls-2" d="M314.24,179.65V161.06q0-5.51-2-8.07T306,150.43a9.51,9.51,0,0,0-7,3.12q-3,3.12-3,8.93v17.17h-2.79V133.75H296v20.46h.12q3.66-6.33,10.66-6.33,5,0,7.66,3.24t2.63,9.29v19.22Z"/><path class="cls-2" d="M338.79,180.41q-6.78,0-10.73-4.47t-4-11.61q0-7.72,4.13-12.08a14.3,14.3,0,0,1,10.88-4.36q6.63,0,10.47,4.33t3.85,12q0,7.24-3.92,11.72T338.79,180.41Zm.21-30a11.06,11.06,0,0,0-8.73,3.69Q327,157.82,327,164.39q0,6.08,3.18,9.78a10.86,10.86,0,0,0,8.69,3.69q5.6,0,8.63-3.63t3-10.08q0-6.63-3-10.17T339,150.43Z"/><path class="cls-2" d="M381.6,179.65V174h-.12q-3.24,6.39-10,6.39-11,0-11-13.83V148.65h2.82v17.23q0,6.3,2.07,9.14t6.52,2.85a8.73,8.73,0,0,0,7-3.18,12.72,12.72,0,0,0,2.68-8.48V148.65h2.79v31Z"/><path class="cls-2" d="M419.11,177.35q0,8.75-3.81,12.81t-11.87,4.06a20.69,20.69,0,0,1-9.23-2.36v-2.91a19.22,19.22,0,0,0,9.29,2.72q12.84,0,12.84-13.56v-4h-.12A12.06,12.06,0,0,1,405,180.41a11.82,11.82,0,0,1-9.34-4.15q-3.62-4.15-3.62-11.56t3.9-12.11a12.74,12.74,0,0,1,10.29-4.69q6.84,0,9.93,5.66h.12v-4.9h2.79Zm-2.79-16.8a10.13,10.13,0,0,0-2.77-7.11,9.38,9.38,0,0,0-7.22-3,10.08,10.08,0,0,0-8.23,3.84Q395,158.12,395,164.45t2.86,9.88a9.25,9.25,0,0,0,7.55,3.53,10.27,10.27,0,0,0,8-3.24,11.31,11.31,0,0,0,3-7.93Z"/><path class="cls-2" d="M450.11,179.65V161.06q0-5.51-2-8.07t-6.24-2.56a9.51,9.51,0,0,0-7,3.12q-3,3.12-3,8.93v17.17H429V133.75h2.79v20.46h.12q3.66-6.33,10.66-6.33,5,0,7.66,3.24t2.63,9.29v19.22Z"/><path class="cls-2" d="M474.48,179.22a9.63,9.63,0,0,1-4.09,1q-6.87,0-6.87-8.23V151.19H458v-2.54h5.57V140.6l1.39-.48c.48-.14.95-.29,1.39-.45v9h8.17v2.54h-8.17v20.46a8.24,8.24,0,0,0,1,4.65,3.91,3.91,0,0,0,3.44,1.44,7.69,7.69,0,0,0,3.72-1.12Z"/><path class="cls-2" d="M482.53,180.19a2.32,2.32,0,0,1-1.73-.71,2.4,2.4,0,0,1-.7-1.74,2.33,2.33,0,0,1,.7-1.74,2.38,2.38,0,0,1,1.73-.68,2.48,2.48,0,0,1,1.76.68,2.28,2.28,0,0,1,.73,1.74,2.34,2.34,0,0,1-.73,1.74A2.42,2.42,0,0,1,482.53,180.19Z"/><path class="cls-2" d="M60.66,240.17H35.22V197.46h9.62v34.91H60.66Z"/><path class="cls-2" d="M70.25,204.84a5.5,5.5,0,0,1-3.9-1.42A4.56,4.56,0,0,1,64.83,200a4.4,4.4,0,0,1,1.52-3.46,6.37,6.37,0,0,1,7.82,0,4.41,4.41,0,0,1,1.5,3.46,4.54,4.54,0,0,1-1.5,3.51A5.59,5.59,0,0,1,70.25,204.84Zm4.65,35.33H65.48v-30.5h9.41Z"/><path class="cls-2" d="M101.25,239.81a13.91,13.91,0,0,1-6.28,1.1q-9.95,0-9.95-10.33v-14H80.08v-6.94H85v-6.58l9.38-2.68v9.26h6.85v6.94H94.4v12.33q0,4.77,3.78,4.77a6.37,6.37,0,0,0,3.07-.86Z"/><path class="cls-2" d="M133.72,227.6h-19.9q.47,6.64,8.37,6.64a16.34,16.34,0,0,0,8.85-2.38v6.79q-4.23,2.26-11,2.26-7.39,0-11.47-4.09T104.5,225.4q0-7.6,4.41-12a14.68,14.68,0,0,1,10.84-4.44q6.67,0,10.32,4t3.65,10.75ZM125,221.82q0-6.55-5.3-6.55a5.06,5.06,0,0,0-3.92,1.88,8.52,8.52,0,0,0-2,4.68Z"/><path class="cls-2" d="M159.22,218.16a8.17,8.17,0,0,0-4-.92,5.71,5.71,0,0,0-4.8,2.25,9.81,9.81,0,0,0-1.73,6.12v14.56h-9.41v-30.5h9.41v5.66h.12q2.23-6.19,8-6.2a6.07,6.07,0,0,1,2.32.36Z"/><path class="cls-2" d="M189,240.17h-8.91v-4.38h-.12a9.94,9.94,0,0,1-9.08,5.12,9.5,9.5,0,0,1-7-2.52,9,9,0,0,1-2.55-6.72q0-8.88,10.51-10.25l8.28-1.1q0-5-5.42-5a18.49,18.49,0,0,0-10.37,3.25v-7.09a23.34,23.34,0,0,1,5.38-1.79,28.3,28.3,0,0,1,6.21-.77q13,0,13,13Zm-8.85-12.39v-2.05l-5.54.71Q170,227,170,230.58a3.42,3.42,0,0,0,1.12,2.64,4.29,4.29,0,0,0,3,1,5.57,5.57,0,0,0,4.32-1.83A6.62,6.62,0,0,0,180.12,227.78Z"/><path class="cls-2" d="M205.83,240.17h-9.41V195h9.41Z"/><path class="cls-2" d="M223.16,240.17h-9.41V195h9.41Z"/><path class="cls-2" d="M260.13,209.67l-12.39,32.94q-4.47,11.88-13.46,11.88a17.27,17.27,0,0,1-5.63-.77v-7.51a7.92,7.92,0,0,0,4.08,1.1,5.1,5.1,0,0,0,5.06-3.43l1.61-3.78L227,209.67h10.42l5.69,18.56a24.17,24.17,0,0,1,.83,4.08h.12a28.47,28.47,0,0,1,1-4l5.75-18.62Z"/><path class="cls-2" d="M264.74,240.91a5.49,5.49,0,0,1-3.87-1.43,4.59,4.59,0,0,1-1.55-3.51,4.43,4.43,0,0,1,1.59-3.52,5.88,5.88,0,0,1,4-1.37,5.66,5.66,0,0,1,3.95,1.38,4.79,4.79,0,0,1,0,7.06A5.9,5.9,0,0,1,264.74,240.91Z"/><path class="cls-3" d="M707.09,181.55,638.23,250l-.82-10.66,70.5-69.68Zm-3.69,39.76-57.8,58.21H641.1l-1.23-7.38L704.63,209Zm-.87-70.91L635.77,216l-1.23-9.84,56.57-55.75H665.7L632.9,183.19l-.82-10.66,22.13-22.13H630l2.05,22.13.82,10.66,1.64,23,1.23,9.84,1.64,23.36.82,10.66,1.64,22.14,1.23,7.38h57l2.05-18.86-18.86,18.86H670.61l30.33-31.15-.23,3.51.23-3.51,2.46-27.05,1.23-12.3,2.46-27.46.82-11.89,2-19.27Z"/><polygon class="cls-4" points="641.1 279.51 645.61 279.51 703.4 221.31 704.63 209.01 639.87 272.13 641.1 279.51"/><polygon class="cls-4" points="700.13 260.66 700.13 260.66 700.71 251.88 700.13 260.66"/><polygon class="cls-4" points="670.61 279.51 681.27 279.51 700.13 260.66 700.71 251.87 700.95 248.36 670.61 279.51"/><polygon class="cls-4" points="638.23 250 707.09 181.55 707.91 169.66 637.41 239.34 638.23 250"/><polygon class="cls-4" points="635.77 215.98 702.53 150.4 691.11 150.4 634.54 206.14 635.77 215.98"/><polygon class="cls-4" points="632.9 183.19 665.7 150.4 654.22 150.4 632.08 172.53 632.9 183.19"/><rect class="cls-4" x="641.92" y="94.24" width="9.02" height="37.3"/><path class="cls-4" d="M712.42,141.38v6.15H626.75v-6.15c0-3.51,3.57-6.15,7.14-6.15h72.28a5.71,5.71,0,0,1,5.35,5.27.86.86,0,0,1,.89.88"/><path class="cls-4" d="M626.75,141.38v6.15h85.67v-6.15c0-3.51-3.57-6.15-7.14-6.15H633a5.71,5.71,0,0,0-5.35,5.27.86.86,0,0,0-.89.88"/><path class="cls-3" d="M779.91,200.26c-6.31,0-12.62,2.09-16.83,5.58a28.64,28.64,0,0,0-16.83-5.58,27.31,27.31,0,0,0-27.35,27.21c0,14.65,12.62,48.83,27.35,52.32,6.31,1.39,10.52-3.49,16.83-3.49,5.61,0,10.52,4.88,16.83,3.49,14-3.49,26.65-37.67,26.65-52.32s-11.92-27.21-26.65-27.21"/><polygon class="cls-5" points="762.89 205.72 762.89 173.61 754.54 173.61 762.89 205.72"/><path class="cls-5" d="M768.67,185.49c-6.31,5.6-7.71,13.31-5.6,21a21.71,21.71,0,0,0,26.62-26.62,21.24,21.24,0,0,0-21,5.6"/><path class="cls-6" d="M762.89,206.52A22,22,0,0,0,784,200.95,21.38,21.38,0,0,0,789.67,180Z"/></svg>