<svg id="Layer_1" data-name="Layer 1" xmlns="http://www.w3.org/2000/svg" viewBox="0 0 835.28 376.7"><defs><style>.cls-1{fill:#5a3d96;}.cls-2{fill:#fff;}.cls-3{fill:#2f245d;}.cls-4{fill:#9e95c9;}</style></defs><title>ReactorLandingpage</title><rect class="cls-1" width="835.28" height="376.7"/><path class="cls-2" d="M86.35,176.62a27.85,27.85,0,0,1-13.83,3.78q-8.87,0-14.35-6t-5.48-15.8q0-9.87,5.9-16.47t15.77-6.6a28,28,0,0,1,11.11,2.3v3.27a26.47,26.47,0,0,0-11.54-2.85,16.78,16.78,0,0,0-13.18,5.6q-5,5.6-5,14.29,0,9.14,4.68,14.33t12.61,5.19a20.28,20.28,0,0,0,10.29-2.54V160.79H73.12v-2.72H86.35Z"/><path class="cls-2" d="M108.21,180.41q-6.78,0-10.73-4.47t-4-11.61q0-7.72,4.13-12.08a14.3,14.3,0,0,1,10.88-4.36q6.63,0,10.47,4.33t3.84,12q0,7.24-3.92,11.72T108.21,180.41Zm.21-30a11.06,11.06,0,0,0-8.73,3.69q-3.25,3.69-3.25,10.26,0,6.08,3.18,9.78a10.86,10.86,0,0,0,8.69,3.69q5.6,0,8.63-3.63t3-10.08q0-6.63-3-10.17T108.42,150.44Z"/><path class="cls-2" d="M143,180.41q-6.78,0-10.73-4.47t-4-11.61q0-7.72,4.13-12.08a14.3,14.3,0,0,1,10.88-4.36q6.63,0,10.47,4.33t3.85,12q0,7.24-3.92,11.72T143,180.41Zm.21-30a11.06,11.06,0,0,0-8.73,3.69q-3.25,3.69-3.25,10.26,0,6.08,3.18,9.78a10.86,10.86,0,0,0,8.69,3.69q5.6,0,8.63-3.63t3-10.08q0-6.63-3-10.17T143.2,150.44Z"/><path class="cls-2" d="M187.34,179.65V174h-.12a11.31,11.31,0,0,1-4.48,4.66,13.06,13.06,0,0,1-6.69,1.73,11.79,11.79,0,0,1-9.34-4.18q-3.62-4.18-3.62-11.53,0-7.51,4-12.15a12.82,12.82,0,0,1,10.25-4.65q7,0,9.93,5.72h.12V133.75h2.79v45.89Zm0-18.86a10.52,10.52,0,0,0-2.74-7.34,9.47,9.47,0,0,0-7.37-3,10.11,10.11,0,0,0-8.05,3.74Q166,157.91,166,164.45t2.86,9.91a9.09,9.09,0,0,0,7.37,3.5q5.3,0,8.2-3.28a11.66,11.66,0,0,0,2.91-8Z"/><path class="cls-2" d="M229.3,179.23a9.62,9.62,0,0,1-4.09,1q-6.87,0-6.87-8.23V151.19h-5.57v-2.54h5.57V140.6l1.39-.48q.73-.21,1.39-.45v9h8.17v2.54h-8.17v20.46a8.23,8.23,0,0,0,1,4.65,3.91,3.91,0,0,0,3.44,1.44,7.68,7.68,0,0,0,3.72-1.12Z"/><path class="cls-2" d="M256.52,179.65V161.06q0-5.51-2-8.07t-6.24-2.56a9.51,9.51,0,0,0-7,3.12q-3,3.12-3,8.93v17.17h-2.79V133.75h2.79v20.46h.12q3.66-6.33,10.66-6.33,5,0,7.66,3.24t2.63,9.29v19.22Z"/><path class="cls-2" d="M270,140.84a2.33,2.33,0,0,1-2.3-2.36,2,2,0,0,1,.71-1.62,2.36,2.36,0,0,1,1.59-.62,2.47,2.47,0,0,1,1.65.61,2,2,0,0,1,.71,1.63,2.38,2.38,0,0,1-2.36,2.36Zm-1.36,38.81v-31h2.79v31Z"/><path class="cls-2" d="M302.41,179.65v-18q0-11.17-8.05-11.17a9.34,9.34,0,0,0-7.36,3.28,11.9,11.9,0,0,0-2.87,8.13v17.8h-2.79v-31h2.79v5.63h.12a11.22,11.22,0,0,1,10.6-6.39,9.25,9.25,0,0,1,7.69,3.34q2.66,3.35,2.66,9.55v18.86Z"/><path class="cls-2" d="M339.32,177.35q0,8.75-3.81,12.81t-11.87,4.06a20.69,20.69,0,0,1-9.23-2.36v-2.91a19.22,19.22,0,0,0,9.29,2.72q12.84,0,12.84-13.56v-4h-.12a12.06,12.06,0,0,1-11.17,6.33,11.82,11.82,0,0,1-9.34-4.15q-3.62-4.15-3.62-11.56t3.9-12.11a12.74,12.74,0,0,1,10.29-4.69q6.84,0,9.93,5.66h.12v-4.9h2.79Zm-2.79-16.8a10.13,10.13,0,0,0-2.77-7.11,9.38,9.38,0,0,0-7.22-3,10.08,10.08,0,0,0-8.23,3.84q-3.12,3.85-3.12,10.17t2.86,9.88a9.25,9.25,0,0,0,7.55,3.53,10.27,10.27,0,0,0,8-3.24,11.31,11.31,0,0,0,3-7.93Z"/><path class="cls-2" d="M347.64,178.29v-3.36a11.65,11.65,0,0,0,3.81,2.15,12,12,0,0,0,3.88.79q7.29,0,7.29-6a4.57,4.57,0,0,0-1.6-3.51,19.38,19.38,0,0,0-5.21-3,17.68,17.68,0,0,1-6.25-4,7.93,7.93,0,0,1,1.09-11.16,11,11,0,0,1,7.13-2.33,13.52,13.52,0,0,1,6.84,1.63v3.15a13,13,0,0,0-7.14-2.24,7.38,7.38,0,0,0-4.93,1.59,5.16,5.16,0,0,0-1.88,4.13,5.32,5.32,0,0,0,1.18,3.59q1.18,1.38,5.21,3.16a22.78,22.78,0,0,1,6.66,4,6.78,6.78,0,0,1,1.82,4.95,7.73,7.73,0,0,1-2.77,6.1q-2.77,2.41-7.64,2.41A12.63,12.63,0,0,1,347.64,178.29Z"/><path class="cls-2" d="M411.37,179.65V161.06q0-5.51-2-8.07t-6.24-2.56a9.51,9.51,0,0,0-7,3.12q-3,3.12-3,8.93v17.17H390.3V133.75h2.79v20.46h.12q3.66-6.33,10.66-6.33,5,0,7.66,3.24t2.63,9.29v19.22Z"/><path class="cls-2" d="M442,179.65v-6.21h-.12a12.15,12.15,0,0,1-4.31,5.07,11.07,11.07,0,0,1-6.28,1.89,9.64,9.64,0,0,1-7-2.48,8.33,8.33,0,0,1-2.57-6.27q0-8.11,10.75-9.81l9.54-1.42q0-10-7.51-10-5.12,0-10,4.12v-3.36a15.19,15.19,0,0,1,4.68-2.33,17.86,17.86,0,0,1,5.56-1,9.35,9.35,0,0,1,7.4,3q2.62,3,2.62,8.63v20.16Zm-8.54-15.44q-4.87.7-6.84,2.26t-2,5.07a6.07,6.07,0,0,0,1.83,4.54,7,7,0,0,0,5.1,1.79,9.57,9.57,0,0,0,7.45-3.32,12.33,12.33,0,0,0,3-8.55v-3Z"/><path class="cls-2" d="M457,174.14h-.12v19.77h-2.79V148.65h2.79V155H457a12.24,12.24,0,0,1,4.77-5.28,13,13,0,0,1,6.83-1.86,11.23,11.23,0,0,1,9.22,4.07q3.31,4.07,3.32,11.07,0,7.78-3.8,12.58a12.17,12.17,0,0,1-10,4.8A10.93,10.93,0,0,1,457,174.14Zm-.12-11.53v3.91a11.72,11.72,0,0,0,2.94,8,9.78,9.78,0,0,0,7.72,3.34,9.14,9.14,0,0,0,7.72-4.07q3-4.07,3-10.7,0-5.81-2.72-9.23a8.82,8.82,0,0,0-7.27-3.42,10.22,10.22,0,0,0-8.39,3.63A13.09,13.09,0,0,0,456.9,162.61Z"/><path class="cls-2" d="M491.74,174.14h-.12v19.77h-2.79V148.65h2.79V155h.12a12.24,12.24,0,0,1,4.77-5.28,13,13,0,0,1,6.83-1.86,11.23,11.23,0,0,1,9.22,4.07q3.31,4.07,3.31,11.07,0,7.78-3.8,12.58a12.17,12.17,0,0,1-10,4.8A10.93,10.93,0,0,1,491.74,174.14Zm-.12-11.53v3.91a11.73,11.73,0,0,0,2.94,8,9.78,9.78,0,0,0,7.72,3.34,9.14,9.14,0,0,0,7.72-4.07q3-4.07,3-10.7,0-5.81-2.72-9.23a8.82,8.82,0,0,0-7.27-3.42,10.21,10.21,0,0,0-8.38,3.63A13.08,13.08,0,0,0,491.62,162.61Z"/><path class="cls-2" d="M524.23,164.27q0,6.39,3,10a9.9,9.9,0,0,0,8.1,3.6A16.48,16.48,0,0,0,545.45,174v3a18.12,18.12,0,0,1-10.75,3.42,12.16,12.16,0,0,1-9.69-4.3q-3.69-4.3-3.69-12.14a17.29,17.29,0,0,1,3.86-11.43,12.43,12.43,0,0,1,10-4.65q5.78,0,8.87,4.06T547.17,163v1.24Zm20-2.54q-.18-5.36-2.57-8.33a8,8,0,0,0-6.6-3,9.68,9.68,0,0,0-7.22,2.92q-2.86,2.92-3.53,8.37Z"/><path class="cls-2" d="M575.93,179.65v-18q0-11.17-8.05-11.17a9.34,9.34,0,0,0-7.36,3.28,11.9,11.9,0,0,0-2.88,8.13v17.8h-2.79v-31h2.79v5.63h.12a11.22,11.22,0,0,1,10.6-6.39,9.25,9.25,0,0,1,7.69,3.34q2.66,3.35,2.66,9.55v18.86Z"/><path class="cls-2" d="M97.49,209.67l-8.79,30.5H78.81l-4.5-17.87a18.22,18.22,0,0,1-.51-3.9h-.18a23.46,23.46,0,0,1-.6,3.78l-4.83,18H58.44l-8.61-30.5h9.59l4.2,19.9a26.17,26.17,0,0,1,.45,3.4h.18a18.78,18.78,0,0,1,.54-3.51L70,209.67h9l4.71,19.9a31.89,31.89,0,0,1,.42,3.46h.21a34.1,34.1,0,0,1,.48-3.46l4-19.9Z"/><path class="cls-2" d="M131.23,240.17h-9.38V222.83q0-6.7-4.88-6.7a5,5,0,0,0-4.05,1.88,7.24,7.24,0,0,0-1.55,4.77v17.39H102V195h9.41V214.2h.12a10.69,10.69,0,0,1,9.38-5.27q10.37,0,10.37,12.51Z"/><path class="cls-2" d="M166.08,227.6h-19.9q.47,6.64,8.37,6.64a16.34,16.34,0,0,0,8.85-2.38v6.79q-4.23,2.26-11,2.26-7.39,0-11.47-4.09t-4.08-11.42q0-7.6,4.41-12a14.68,14.68,0,0,1,10.84-4.44q6.67,0,10.32,4t3.65,10.75Zm-8.73-5.78q0-6.55-5.3-6.55a5.06,5.06,0,0,0-3.92,1.88,8.52,8.52,0,0,0-2,4.68Z"/><path class="cls-2" d="M201.14,240.17h-9.38V223.22q0-7.09-5.06-7.09a5,5,0,0,0-4,1.88,7.15,7.15,0,0,0-1.58,4.77v17.39h-9.41v-30.5h9.41v4.83h.12a10.78,10.78,0,0,1,9.8-5.57q10.13,0,10.13,12.57Z"/><path class="cls-2" d="M230.18,204.84a5.5,5.5,0,0,1-3.9-1.42,4.56,4.56,0,0,1-1.52-3.47,4.4,4.4,0,0,1,1.52-3.46,6.37,6.37,0,0,1,7.82,0,4.41,4.41,0,0,1,1.5,3.46,4.54,4.54,0,0,1-1.5,3.51A5.59,5.59,0,0,1,230.18,204.84Zm4.65,35.33h-9.41v-30.5h9.41Z"/><path class="cls-2" d="M272.6,240.17h-9.41V236h-.12a10.55,10.55,0,0,1-9.44,4.94,11.57,11.57,0,0,1-9.2-4q-3.48-4-3.48-11.27,0-7.57,3.84-12.12a12.54,12.54,0,0,1,10.07-4.56q5.9,0,8.22,4.23h.12V195h9.41Zm-9.23-14.83V223a7.22,7.22,0,0,0-1.73-4.94,6.1,6.1,0,0,0-9.38.49,11.41,11.41,0,0,0-1.76,6.75,9.87,9.87,0,0,0,1.7,6.2,6,6,0,0,0,9.37-.12A9.56,9.56,0,0,0,263.36,225.34Z"/><path class="cls-2" d="M307.92,227.6H288q.48,6.64,8.37,6.64a16.34,16.34,0,0,0,8.85-2.38v6.79q-4.23,2.26-11,2.26-7.39,0-11.47-4.09T278.7,225.4q0-7.6,4.41-12A14.68,14.68,0,0,1,294,208.92q6.67,0,10.32,4t3.65,10.75Zm-8.73-5.78q0-6.55-5.3-6.55a5.06,5.06,0,0,0-3.92,1.88,8.52,8.52,0,0,0-2,4.68Z"/><path class="cls-2" d="M338.9,240.17H330v-4.38h-.12a9.94,9.94,0,0,1-9.08,5.12,9.5,9.5,0,0,1-7-2.52,9,9,0,0,1-2.55-6.72q0-8.88,10.51-10.25l8.28-1.1q0-5-5.42-5a18.5,18.5,0,0,0-10.37,3.25v-7.09a23.35,23.35,0,0,1,5.38-1.79,28.29,28.29,0,0,1,6.21-.77q13,0,13,13Zm-8.85-12.39v-2.05l-5.54.71q-4.59.59-4.59,4.14a3.42,3.42,0,0,0,1.12,2.64,4.29,4.29,0,0,0,3,1,5.57,5.57,0,0,0,4.32-1.83A6.62,6.62,0,0,0,330.05,227.78Z"/><path class="cls-2" d="M344.35,239.36v-7.62a20,20,0,0,0,4.63,2.09,15.37,15.37,0,0,0,4.36.68,9.37,9.37,0,0,0,3.95-.68,2.22,2.22,0,0,0,1.45-2.09,1.92,1.92,0,0,0-.66-1.49,6.07,6.07,0,0,0-1.68-1,19,19,0,0,0-2.25-.8q-1.22-.36-2.35-.8a22.56,22.56,0,0,1-3.2-1.47,9.27,9.27,0,0,1-2.32-1.83,7.22,7.22,0,0,1-1.43-2.41,9.64,9.64,0,0,1-.49-3.25,8.36,8.36,0,0,1,1.12-4.41,9.12,9.12,0,0,1,3-3,13.6,13.6,0,0,1,4.26-1.73,22.22,22.22,0,0,1,5-.55,27.62,27.62,0,0,1,4.11.31,30.57,30.57,0,0,1,4.11.91v7.27a14.84,14.84,0,0,0-3.83-1.56,16.14,16.14,0,0,0-4-.52,8.87,8.87,0,0,0-1.74.16,5.73,5.73,0,0,0-1.44.48,2.65,2.65,0,0,0-1,.8,1.85,1.85,0,0,0-.36,1.12,2.07,2.07,0,0,0,.54,1.43,4.63,4.63,0,0,0,1.4,1,13.66,13.66,0,0,0,1.92.77l2.1.7a27.22,27.22,0,0,1,3.4,1.43,10.89,10.89,0,0,1,2.61,1.82,7.13,7.13,0,0,1,1.67,2.44,9.77,9.77,0,0,1-.6,8,9.42,9.42,0,0,1-3.13,3.13,14.19,14.19,0,0,1-4.5,1.76,24.94,24.94,0,0,1-5.29.55A27.24,27.24,0,0,1,344.35,239.36Z"/><path class="cls-2" d="M421.55,238.65q-4.68,2.26-12.21,2.26-9.83,0-15.46-5.78t-5.63-15.4q0-10.25,6.33-16.62T411,196.74a30.71,30.71,0,0,1,10.54,1.58v9.26a18.68,18.68,0,0,0-9.77-2.56,13,13,0,0,0-9.71,3.78q-3.69,3.78-3.69,10.25,0,6.19,3.49,9.87a12.31,12.31,0,0,0,9.38,3.68,20,20,0,0,0,10.31-2.74Z"/><path class="cls-2" d="M442.61,240.91q-7.63,0-12-4.27T426.26,225q0-7.57,4.53-11.84T443,208.92q7.6,0,11.91,4.27t4.32,11.3q0,7.6-4.45,12T442.61,240.91Zm.24-24.78a6.28,6.28,0,0,0-5.18,2.29,10.12,10.12,0,0,0-1.85,6.49q0,8.79,7.09,8.79,6.76,0,6.76-9Q449.67,216.13,442.85,216.13Z"/><path class="cls-2" d="M474.78,240.17h-9.41V195h9.41Z"/><path class="cls-2" d="M492.11,240.17H482.7V195h9.41Z"/><path class="cls-2" d="M504.8,204.84a5.5,5.5,0,0,1-3.9-1.42,4.56,4.56,0,0,1-1.52-3.47,4.4,4.4,0,0,1,1.52-3.46,6.37,6.37,0,0,1,7.82,0,4.41,4.41,0,0,1,1.5,3.46,4.54,4.54,0,0,1-1.5,3.51A5.59,5.59,0,0,1,504.8,204.84Zm4.65,35.33H500v-30.5h9.41Z"/><path class="cls-2" d="M547.21,240.17H537.8V236h-.12a10.55,10.55,0,0,1-9.44,4.94,11.57,11.57,0,0,1-9.2-4q-3.48-4-3.48-11.27,0-7.57,3.84-12.12a12.54,12.54,0,0,1,10.07-4.56q5.9,0,8.22,4.23h.12V195h9.41ZM538,225.34V223a7.22,7.22,0,0,0-1.73-4.94,6.1,6.1,0,0,0-9.38.49,11.41,11.41,0,0,0-1.76,6.75,9.87,9.87,0,0,0,1.7,6.2,6,6,0,0,0,9.37-.12A9.56,9.56,0,0,0,538,225.34Z"/><path class="cls-2" d="M582.54,227.6h-19.9q.48,6.64,8.37,6.64a16.34,16.34,0,0,0,8.85-2.38v6.79q-4.23,2.26-11,2.26-7.39,0-11.47-4.09t-4.08-11.42q0-7.6,4.41-12a14.68,14.68,0,0,1,10.84-4.44q6.67,0,10.32,4t3.65,10.75Zm-8.73-5.78q0-6.55-5.3-6.55a5.06,5.06,0,0,0-3.92,1.88,8.52,8.52,0,0,0-2,4.68Z"/><path class="cls-2" d="M592.34,240.91a5.49,5.49,0,0,1-3.87-1.43,4.59,4.59,0,0,1-1.55-3.51,4.43,4.43,0,0,1,1.59-3.52,5.88,5.88,0,0,1,4-1.37,5.66,5.66,0,0,1,3.95,1.38,4.79,4.79,0,0,1,0,7.06A5.9,5.9,0,0,1,592.34,240.91Z"/><path class="cls-3" d="M640.48,126.83h66.38a18.31,18.31,0,0,1,18.31,18.31v43.14a18.31,18.31,0,0,1-18.31,18.31H640.48a18.31,18.31,0,0,1-18.31-18.31V145.14a18.31,18.31,0,0,1,18.31-18.31"/><path class="cls-2" d="M788,163.58H729.76v24.7a22.93,22.93,0,0,1-22.91,22.91h-.11v9.89a18.31,18.31,0,0,0,18.31,18.31h63a18.31,18.31,0,0,0,18.31-18.31V181.89A18.31,18.31,0,0,0,788,163.58"/><polyline class="cls-2" points="757.76 234.5 782.09 255.76 782.09 234.5"/><polyline class="cls-3" points="665.14 201.71 640.8 222.97 640.8 201.71"/><path class="cls-3" d="M783.06,181.48l-2.26-1.75a1.73,1.73,0,0,0-1.56.18l-2.45,2.62c-.87.87-1.57.87-2.09.52h-.17a5,5,0,0,0-1.57-.35,2.2,2.2,0,0,1-1.74-1.75l-.69-3.3a1.44,1.44,0,0,0-1.22-1.06l-3,.35a1.67,1.67,0,0,0-.87,1.4v3.32a2.23,2.23,0,0,1-1,2.08h-.18a9.5,9.5,0,0,1-1.39.87,2.32,2.32,0,0,1-2.43,0l-2.8-1.74a1.21,1.21,0,0,0-1.57.18l-1.74,2.27c-.35.18-.35,1,.17,1.57l2.44,2.27a2.12,2.12,0,0,1,.7,2.26v.18a12.33,12.33,0,0,1-.52,1.4v.18a1.85,1.85,0,0,1-1.74,1.57l-3.3.87c-.52.18-1,.88-.87,1.23l.35,2.8a1.17,1.17,0,0,0,1.22,1l3.48-.18c1.21,0,1.74.52,1.91,1.22h.18a9.71,9.71,0,0,0,.71,1.39v.19c.52.52.69,1.22,0,2.43l-1.75,2.8a1.26,1.26,0,0,0,.17,1.57l2.28,1.75c.35.17,1.21.35,1.56-.18l2.44-2.62a2.35,2.35,0,0,1,2.26-.52l1.56.52c.88,0,1.41.35,1.75,1.75l.69,3.13A1.45,1.45,0,0,0,771.4,215l2.78-.35c.35,0,.87-.71.87-1.24V209.9a2.22,2.22,0,0,1,1-2.08,3.39,3.39,0,0,0,1.58-.87,2.35,2.35,0,0,1,2.43,0l2.78,1.91a1.48,1.48,0,0,0,1.56-.17l1.74-2.28a1.32,1.32,0,0,0-.18-1.74l-2.43-2.27a1.91,1.91,0,0,1-.69-1.91c.17-.7.35-1.41.52-2.27a1.92,1.92,0,0,1,1.74-1.4l3.31-.86c.7-.19,1-.71.87-1.23l-.35-2.8a1.31,1.31,0,0,0-1.22-1l-3.49.17c-1.22,0-1.74-.52-1.91-1.22a10.68,10.68,0,0,0-.86-1.4v-.18c-.52-.52-.7-1.21,0-2.26l1.74-3a1.3,1.3,0,0,0-.18-1.57m-8.53,8.72A7,7,0,1,1,766,201.36a7,7,0,0,1,8.53-11.17"/><path class="cls-1" d="M756.54,206.21l-2.09-.92a1.38,1.38,0,0,0-1.18.44l-1.39,2.51c-.51.85-1,1-1.52.81l-.13,0a4,4,0,0,0-1.28,0,1.76,1.76,0,0,1-1.69-1l-1.18-2.43a1.15,1.15,0,0,0-1.15-.59l-2.23.85a1.34,1.34,0,0,0-.4,1.26l.64,2.58a1.78,1.78,0,0,1-.4,1.82l-.14,0a7.64,7.64,0,0,1-.91.95,1.85,1.85,0,0,1-1.89.47l-2.51-.81c-.61-.13-1.11.14-1.18.44l-.91,2.1c-.23.2-.07.88.44,1.18l2.33,1.29a1.7,1.7,0,0,1,1,1.62l0,.14a9.92,9.92,0,0,1-.13,1.19l0,.14a1.48,1.48,0,0,1-1,1.55l-2.39,1.31c-.37.24-.64.89-.44,1.12l.81,2.1a.93.93,0,0,0,1.15.58l2.67-.81c.94-.23,1.45.07,1.72.58l.14,0a7.77,7.77,0,0,0,.82.94l0,.15c.5.3.78.81.47,1.89l-.82,2.51a1,1,0,0,0,.44,1.18l2.11.92c.3.07,1,0,1.18-.44l1.38-2.5a1.89,1.89,0,0,1,1.65-.85l1.31.1c.69-.17,1.16,0,1.7,1l1.15,2.3a1.16,1.16,0,0,0,1.28.55l2.09-.81c.27-.07.54-.72.44-1.13l-.68-2.71a1.78,1.78,0,0,1,.4-1.82,2.71,2.71,0,0,0,1.06-1,1.88,1.88,0,0,1,1.89-.47l2.53.95a1.18,1.18,0,0,0,1.18-.44l.91-2.11a1.05,1.05,0,0,0-.47-1.31L761,222.35a1.53,1.53,0,0,1-.91-1.35c0-.57,0-1.16,0-1.86a1.53,1.53,0,0,1,1.08-1.42l2.4-1.31c.5-.28.67-.75.44-1.12l-.81-2.1a1,1,0,0,0-1.15-.57l-2.68.81c-.95.24-1.45-.07-1.72-.58a8.59,8.59,0,0,0-.94-.92l0-.14c-.51-.3-.78-.8-.44-1.75l.77-2.64a1,1,0,0,0-.44-1.18m-4.93,8.42A5.62,5.62,0,1,1,747.16,225a5.62,5.62,0,0,1,4.45-10.32"/><path class="cls-2" d="M649.6,145.7,647.85,148a1.73,1.73,0,0,0,.18,1.56l2.62,2.45c.87.87.87,1.57.52,2.09v.17a5,5,0,0,0-.35,1.57,2.2,2.2,0,0,1-1.75,1.74l-3.3.69a1.44,1.44,0,0,0-1.06,1.22l.35,3a1.67,1.67,0,0,0,1.4.87h3.32a2.23,2.23,0,0,1,2.08,1v.18a9.5,9.5,0,0,1,.87,1.39,2.32,2.32,0,0,1,0,2.43l-1.74,2.8a1.21,1.21,0,0,0,.18,1.57l2.27,1.74c.18.35,1,.35,1.57-.17l2.27-2.44a2.12,2.12,0,0,1,2.26-.7h.18a12.39,12.39,0,0,1,1.4.52h.18a1.85,1.85,0,0,1,1.57,1.74l.87,3.3c.18.52.88,1,1.23.87l2.8-.35a1.17,1.17,0,0,0,1-1.22l-.18-3.48c0-1.21.52-1.74,1.22-1.91v-.18a9.71,9.71,0,0,0,1.39-.71h.19c.52-.52,1.22-.69,2.43,0l2.8,1.75a1.26,1.26,0,0,0,1.57-.17L680,169c.17-.35.35-1.21-.18-1.56L677.16,165a2.36,2.36,0,0,1-.52-2.26l.52-1.56c0-.88.35-1.41,1.75-1.75l3.13-.7a1.45,1.45,0,0,0,1.06-1.39l-.35-2.78c0-.35-.71-.87-1.24-.87H678a2.22,2.22,0,0,1-2.08-1,3.39,3.39,0,0,0-.87-1.58,2.35,2.35,0,0,1,0-2.43l1.91-2.78a1.48,1.48,0,0,0-.17-1.56l-2.28-1.74a1.32,1.32,0,0,0-1.74.18l-2.27,2.43a1.91,1.91,0,0,1-1.91.69c-.69-.17-1.41-.35-2.27-.52a1.92,1.92,0,0,1-1.4-1.74l-.86-3.31c-.19-.7-.71-1-1.23-.87l-2.8.35a1.31,1.31,0,0,0-1,1.22l.17,3.49c0,1.22-.52,1.74-1.22,1.91a10.69,10.69,0,0,0-1.4.86h-.18c-.52.52-1.21.7-2.26,0l-3-1.74a1.3,1.3,0,0,0-1.57.18m8.72,8.53a7,7,0,1,1,11.17,8.53,7,7,0,0,1-11.17-8.53"/><path class="cls-4" d="M674.33,172.22l-.92,2.09a1.39,1.39,0,0,0,.44,1.18l2.51,1.39c.85.51,1,1,.81,1.52l0,.13a4,4,0,0,0,0,1.28,1.76,1.76,0,0,1-1,1.69l-2.43,1.18a1.15,1.15,0,0,0-.59,1.15l.85,2.23a1.34,1.34,0,0,0,1.26.4l2.58-.64a1.79,1.79,0,0,1,1.82.4l0,.14a7.69,7.69,0,0,1,.95.91,1.86,1.86,0,0,1,.47,1.89l-.81,2.51c-.13.61.14,1.11.44,1.18l2.1.91c.2.24.88.07,1.18-.44l1.29-2.33a1.7,1.7,0,0,1,1.62-1l.14,0a9.93,9.93,0,0,1,1.19.13l.14,0a1.48,1.48,0,0,1,1.55,1l1.31,2.39c.24.37.89.64,1.12.44l2.1-.81a.93.93,0,0,0,.58-1.15l-.81-2.67c-.23-.94.07-1.45.58-1.72l0-.14a7.77,7.77,0,0,0,.94-.82l.15,0c.3-.5.81-.78,1.89-.47l2.51.82a1,1,0,0,0,1.18-.44l.92-2.11c.07-.3,0-1-.44-1.18l-2.5-1.38a1.89,1.89,0,0,1-.85-1.65c0-.44.07-.88.1-1.31-.17-.69,0-1.16,1-1.7l2.3-1.15a1.16,1.16,0,0,0,.55-1.28l-.81-2.09c-.07-.27-.72-.54-1.13-.44l-2.71.68a1.78,1.78,0,0,1-1.82-.4,2.71,2.71,0,0,0-1-1.05,1.88,1.88,0,0,1-.47-1.89l.95-2.53a1.18,1.18,0,0,0-.44-1.18l-2.11-.91a1.05,1.05,0,0,0-1.31.47l-1.29,2.33a1.53,1.53,0,0,1-1.35.91c-.57,0-1.16,0-1.86,0a1.53,1.53,0,0,1-1.42-1.08l-1.31-2.4c-.28-.5-.75-.67-1.12-.44l-2.1.81a1,1,0,0,0-.57,1.15l.81,2.68c.24.95-.07,1.45-.58,1.72a8.67,8.67,0,0,0-.92.94l-.14,0c-.3.51-.8.78-1.75.44l-2.64-.77a1,1,0,0,0-1.18.44m8.42,4.93a5.62,5.62,0,1,1,10.32,4.45,5.62,5.62,0,0,1-10.32-4.45"/></svg>