<svg id="Layer_1" data-name="Layer 1" xmlns="http://www.w3.org/2000/svg" viewBox="0 0 385.74 389"><defs><style>.cls-1{fill:#263e7f;}.cls-2{fill:#fff;}.cls-3{fill:#f06724;}.cls-4{fill:#8cc540;}.cls-5{fill:#29abe2;}.cls-6{fill:#ffc113;}.cls-7{fill:#48c7f4;}.cls-8{fill:#0b72ba;}</style></defs><title>reactorlogo</title><polyline class="cls-1" points="389.77 396.02 0 396.02 0 -3.24 389.77 -3.24"/><polygon class="cls-2" points="163.68 64.15 163.68 84.14 168.15 84.14 168.15 58.16 161.96 58.16 154.1 77.46 146.47 58.16 140.04 58.16 140.04 84.14 144.24 84.14 144.24 64.15 144.38 64.15 152.44 84.14 155.6 84.14 163.54 64.15 163.68 64.15"/><path class="cls-2" d="M176.75,65.52h-4.38V84.14h4.38Zm-2.15-7.93a2.64,2.64,0,0,0-1.87.73,2.41,2.41,0,0,0-.78,1.83,2.34,2.34,0,0,0,.77,1.79,2.67,2.67,0,0,0,1.87.71,2.7,2.7,0,0,0,1.88-.71,2.34,2.34,0,0,0,.78-1.79,2.46,2.46,0,0,0-.76-1.81,2.62,2.62,0,0,0-1.9-.75"/><path class="cls-2" d="M189.81,65.08a10.8,10.8,0,0,0-5.32,1.28A8.61,8.61,0,0,0,181,70a11.49,11.49,0,0,0-1.21,5.35,9.86,9.86,0,0,0,1.17,4.79,8.24,8.24,0,0,0,3.28,3.31A9.74,9.74,0,0,0,189,84.59a10.49,10.49,0,0,0,5.28-1.24l.06,0v-4l-.18.13A8.29,8.29,0,0,1,192,80.56a6.47,6.47,0,0,1-2.1.41,5.39,5.39,0,0,1-4.1-1.6,6.21,6.21,0,0,1-1.51-4.43,6.45,6.45,0,0,1,1.58-4.54A5.36,5.36,0,0,1,190,68.7a7,7,0,0,1,4.17,1.45l.18.13V66.06l-.06,0a7.23,7.23,0,0,0-2-.68,12,12,0,0,0-2.45-.26"/><path class="cls-2" d="M202,68.75V65.52h-4.38V84.14H202V74.62a6.64,6.64,0,0,1,1.09-4,3.35,3.35,0,0,1,2.83-1.5,5.12,5.12,0,0,1,1.32.19,3.33,3.33,0,0,1,1,.41l.18.13V65.49l-.07,0a4.55,4.55,0,0,0-1.71-.26,4.48,4.48,0,0,0-2.93,1.05,5.92,5.92,0,0,0-1.68,2.5Z"/><path class="cls-2" d="M218.42,81a4.7,4.7,0,0,1-3.77-1.58,6.73,6.73,0,0,1-1.36-4.48,7,7,0,0,1,1.36-4.59,4.63,4.63,0,0,1,3.74-1.61A4.56,4.56,0,0,1,222,70.24a6.85,6.85,0,0,1,1.33,4.56,7.31,7.31,0,0,1-1.25,4.61A4.45,4.45,0,0,1,218.42,81m.2-15.89a9.72,9.72,0,0,0-7.25,2.67,10,10,0,0,0-2.62,7.3,9.49,9.49,0,0,0,2.56,7,9.27,9.27,0,0,0,6.86,2.57,9.46,9.46,0,0,0,7.1-2.71,10,10,0,0,0,2.62-7.23,9.75,9.75,0,0,0-2.46-7,9,9,0,0,0-6.81-2.56"/><path class="cls-2" d="M237.12,65.08A8,8,0,0,0,232,66.66a5.06,5.06,0,0,0-2,4.13,5.76,5.76,0,0,0,.43,2.31,4.63,4.63,0,0,0,1.32,1.73,11.55,11.55,0,0,0,2.69,1.51,19.88,19.88,0,0,1,2.24,1,3.11,3.11,0,0,1,1,.81,1.81,1.81,0,0,1,.28,1.06c0,1.25-.94,1.86-2.86,1.86a7.86,7.86,0,0,1-2.42-.44,9.14,9.14,0,0,1-2.48-1.26l-.18-.13v4.27l.07,0a11,11,0,0,0,2.35.73,12.62,12.62,0,0,0,2.51.29,8.51,8.51,0,0,0,5.42-1.6,5.16,5.16,0,0,0,2-4.23,4.86,4.86,0,0,0-1.09-3.2,9.31,9.31,0,0,0-3.69-2.35,9.57,9.57,0,0,1-2.63-1.37,1.92,1.92,0,0,1-.53-1.43,1.59,1.59,0,0,1,.67-1.33,3,3,0,0,1,1.89-.53,7.67,7.67,0,0,1,2.25.35,7.24,7.24,0,0,1,2,.91l.18.12v-4l-.07,0a9.72,9.72,0,0,0-2-.55,12.13,12.13,0,0,0-2.18-.23"/><path class="cls-2" d="M253.93,81a4.7,4.7,0,0,1-3.77-1.58,6.73,6.73,0,0,1-1.36-4.48,7,7,0,0,1,1.36-4.59,4.62,4.62,0,0,1,3.73-1.61,4.56,4.56,0,0,1,3.64,1.54,6.86,6.86,0,0,1,1.33,4.56,7.32,7.32,0,0,1-1.25,4.61A4.45,4.45,0,0,1,253.93,81m.2-15.89a9.72,9.72,0,0,0-7.24,2.67,10,10,0,0,0-2.62,7.3,9.5,9.5,0,0,0,2.55,7,9.27,9.27,0,0,0,6.86,2.57,9.46,9.46,0,0,0,7.1-2.71,10,10,0,0,0,2.62-7.23,9.75,9.75,0,0,0-2.46-7,9,9,0,0,0-6.82-2.56"/><path class="cls-2" d="M286.76,69.1V65.52h-4.43V60l-.15,0L278,61.29l-.08,0v4.2h-6.57V63.18a3.72,3.72,0,0,1,.72-2.48,2.55,2.55,0,0,1,2-.83,4.75,4.75,0,0,1,1.93.44l.16.07V56.62l-.08,0a7.51,7.51,0,0,0-2.46-.33,7.23,7.23,0,0,0-3.49.84,6,6,0,0,0-2.4,2.37,7.08,7.08,0,0,0-.85,3.48v2.58h-3.09V69.1h3.09v15h4.43v-15h6.57v9.56c0,3.94,1.86,5.93,5.52,5.93a9.11,9.11,0,0,0,1.88-.21,5.17,5.17,0,0,0,1.37-.44l.06,0V80.31l-.18.12a3.09,3.09,0,0,1-.89.39,3.39,3.39,0,0,1-.88.15,2.38,2.38,0,0,1-1.89-.69,3.7,3.7,0,0,1-.6-2.39V69.1Z"/><rect class="cls-3" x="83.7" y="49.49" width="20.6" height="20.6"/><rect class="cls-4" x="106.44" y="49.49" width="20.6" height="20.6"/><rect class="cls-5" x="83.7" y="72.24" width="20.6" height="20.6"/><rect class="cls-6" x="106.44" y="72.24" width="20.6" height="20.6"/><rect class="cls-7" x="71.39" y="126.71" width="231.92" height="231.92"/><rect class="cls-8" x="71.39" y="126.71" width="231.92" height="86.79"/><path class="cls-2" d="M98.5,153.79v17.77h7.15a10.78,10.78,0,0,0,7.57-2.53,8.76,8.76,0,0,0,2.76-6.79,7.9,7.9,0,0,0-2.5-6.22q-2.5-2.23-7.22-2.23Zm18.38,38.88-5.53-12.16a14,14,0,0,0-3.31-5,6.72,6.72,0,0,0-4.39-1.36H98.5v18.5H95.63V151.16h11.52a12.25,12.25,0,0,1,8.55,2.93,10.09,10.09,0,0,1,3.23,7.87,11.06,11.06,0,0,1-2.61,7.5,12.15,12.15,0,0,1-7.18,3.88v.11q2.46,1,4.8,6l6.17,13.23Z"/><path class="cls-2" d="M147.77,175.53q-.17-5.15-2.48-8a7.69,7.69,0,0,0-6.3-2.82,9.22,9.22,0,0,0-6.92,2.81,13.49,13.49,0,0,0-3.36,8ZM128.6,178q0,6.16,2.84,9.58a9.51,9.51,0,0,0,7.73,3.42,15.67,15.67,0,0,0,9.73-3.68v2.84a17.41,17.41,0,0,1-10.28,3.27,11.46,11.46,0,0,1-9.32-4.21q-3.47-4.21-3.47-11.51a17.67,17.67,0,0,1,1.72-7.83,13.48,13.48,0,0,1,4.78-5.54,12.12,12.12,0,0,1,6.79-2,10.11,10.11,0,0,1,8.42,3.82q3,3.82,3,10.65V178Z"/><path class="cls-2" d="M159,184.91a5.67,5.67,0,0,0,1.79,4.41,6.9,6.9,0,0,0,4.83,1.64,9.11,9.11,0,0,0,7.14-3.2,11.86,11.86,0,0,0,2.82-8.15v-2.9l-8.16,1.19q-5,.75-6.69,2.27a6,6,0,0,0-1.74,4.73m16.59,7.76v-5.94h-.12a11.53,11.53,0,0,1-4.15,4.85,10.62,10.62,0,0,1-6,1.81,9.42,9.42,0,0,1-6.62-2.32,7.81,7.81,0,0,1-2.53-6q0-7.79,10.28-9.38l9.12-1.36q0-9.55-7.18-9.55-4.89,0-9.52,3.94v-3.21a14.66,14.66,0,0,1,4.53-2.21,17.27,17.27,0,0,1,5.25-.94,9,9,0,0,1,7.09,2.82q2.49,2.82,2.49,8.26v19.28Z"/><path class="cls-2" d="M206.39,191.36a14.66,14.66,0,0,1-7.87,2,13.12,13.12,0,0,1-7-1.9,12.56,12.56,0,0,1-4.76-5.34A18.8,18.8,0,0,1,187,170.1a14.13,14.13,0,0,1,5.31-5.76,14.52,14.52,0,0,1,7.64-2,16.27,16.27,0,0,1,6.57,1.39v3a13,13,0,0,0-7-2,11,11,0,0,0-6.08,1.72,11.31,11.31,0,0,0-4.15,4.8,16,16,0,0,0-1.46,6.93,13.92,13.92,0,0,0,3,9.23,9.71,9.71,0,0,0,7.85,3.53,12.86,12.86,0,0,0,7.76-2.37Z"/><path class="cls-2" d="M225.23,192.26a9.08,9.08,0,0,1-3.91,1q-6.57,0-6.57-7.87V165.46h-5.33V163h5.33v-7.7l2.66-.9V163h7.82v2.43h-7.82V185a7.88,7.88,0,0,0,1,4.44,3.74,3.74,0,0,0,3.28,1.38,7.24,7.24,0,0,0,3.56-1.07Z"/><path class="cls-2" d="M243.21,164.73a10.55,10.55,0,0,0-8.35,3.55q-3.11,3.55-3.11,9.8,0,5.88,3.08,9.38a10.46,10.46,0,0,0,8.26,3.5,10.16,10.16,0,0,0,8.22-3.47q2.92-3.48,2.92-9.64,0-6.37-2.87-9.74t-8.16-3.37m-.2,28.66a13.09,13.09,0,0,1-10.23-4.23Q229,184.94,229,178q0-7.27,3.89-11.49a13.53,13.53,0,0,1,10.46-4.23,12.67,12.67,0,0,1,10,4.17Q257,170.64,257,177.9q0,6.95-3.82,11.22A13,13,0,0,1,243,193.39"/><path class="cls-2" d="M278.35,165.8a5.3,5.3,0,0,0-3.13-1,6.23,6.23,0,0,0-4.26,1.68,11,11,0,0,0-2.94,4.86,23.33,23.33,0,0,0-1.06,7.35v13.92h-2.61V163H267v6.57h.12a10.7,10.7,0,0,1,3.21-5.28,7.63,7.63,0,0,1,5.09-1.87,7.89,7.89,0,0,1,3,.52Z"/><rect class="cls-2" x="96.7" y="242.12" width="5.28" height="23.42"/><path class="cls-2" d="M117.42,257.4v-1.26a3.93,3.93,0,0,0-1-2.71,3.14,3.14,0,0,0-2.46-1.08,3.11,3.11,0,0,0-2.68,1.35,6.25,6.25,0,0,0-1,3.7,5.49,5.49,0,0,0,.91,3.39,3.31,3.31,0,0,0,5.15-.06,5.24,5.24,0,0,0,1-3.33m5.06,8.13h-5.16v-2.3h-.07a5.78,5.78,0,0,1-5.18,2.71,6.26,6.26,0,0,1-5.08-2.26,9.31,9.31,0,0,1-1.88-6.13,10,10,0,0,1,2.11-6.64,6.86,6.86,0,0,1,5.52-2.51,4.7,4.7,0,0,1,4.51,2.32h.07v-9.95h5.16Z"/><path class="cls-2" d="M136.4,255.48q0-3.59-2.91-3.59a2.82,2.82,0,0,0-2.15,1,4.41,4.41,0,0,0-1.09,2.56Zm4.78,3.17H130.27q.26,3.64,4.59,3.64a9.06,9.06,0,0,0,4.85-1.31v3.72a12.73,12.73,0,0,1-6,1.24,7.76,7.76,0,0,1-8.52-8.51,10.07,10.07,0,0,1,1.05-4.65,7.87,7.87,0,0,1,3-3.22,8.22,8.22,0,0,1,4.34-1.16,7.36,7.36,0,0,1,5.63,2.16,8.27,8.27,0,0,1,2,5.91Z"/><path class="cls-2" d="M152.65,257.62l-3,.39q-2.51.31-2.51,2.27a1.9,1.9,0,0,0,.6,1.45,2.34,2.34,0,0,0,1.67.56,3.07,3.07,0,0,0,2.36-1,3.6,3.6,0,0,0,.92-2.55Zm4.85,7.92h-4.88v-2.4h-.07a5.45,5.45,0,0,1-5,2.81,5.22,5.22,0,0,1-3.81-1.38,4.91,4.91,0,0,1-1.41-3.68q0-4.85,5.76-5.62l4.54-.6q0-2.74-3-2.74A10,10,0,0,0,144,253.7v-3.89a12.28,12.28,0,0,1,3-1,16.08,16.08,0,0,1,3.4-.44q7.15,0,7.15,7.14Z"/><path class="cls-2" d="M108.67,286.37l-2.52-7.87a9.69,9.69,0,0,1-.39-2.11h-.13a10.31,10.31,0,0,1-.41,2l-2.55,7.94Zm8.62,9.26h-5.75l-1.67-5.21h-8.33l-1.65,5.21H94.19l8.52-23.42H109Z"/><path class="cls-2" d="M131.71,295a10.21,10.21,0,0,1-5,1,9.3,9.3,0,0,1-4.45-1.05,7.59,7.59,0,0,1-3.07-3,8.54,8.54,0,0,1-1.1-4.33,8.94,8.94,0,0,1,2.54-6.69,9.36,9.36,0,0,1,6.85-2.49,8.73,8.73,0,0,1,4.28.78v4.38a5.92,5.92,0,0,0-3.61-1.21,4.65,4.65,0,0,0-3.54,1.34,4.93,4.93,0,0,0-1.27,3.54,4.76,4.76,0,0,0,1.25,3.48,4.55,4.55,0,0,0,3.4,1.27,6.81,6.81,0,0,0,3.77-1.21Z"/><path class="cls-2" d="M147.09,295a10.21,10.21,0,0,1-5,1A9.3,9.3,0,0,1,137.6,295a7.59,7.59,0,0,1-3.07-3,8.54,8.54,0,0,1-1.1-4.33A8.94,8.94,0,0,1,136,281a9.36,9.36,0,0,1,6.85-2.49,8.73,8.73,0,0,1,4.28.78v4.38a5.92,5.92,0,0,0-3.61-1.21,4.65,4.65,0,0,0-3.54,1.34,4.93,4.93,0,0,0-1.27,3.54,4.76,4.76,0,0,0,1.25,3.48,4.55,4.55,0,0,0,3.4,1.27,6.81,6.81,0,0,0,3.77-1.21Z"/><path class="cls-2" d="M160,285.57q0-3.59-2.91-3.59a2.82,2.82,0,0,0-2.15,1,4.41,4.41,0,0,0-1.09,2.56Zm4.78,3.17H153.92q.26,3.64,4.59,3.64a9.06,9.06,0,0,0,4.85-1.31v3.72a12.73,12.73,0,0,1-6,1.24,7.76,7.76,0,0,1-8.52-8.51,10.08,10.08,0,0,1,1.05-4.65,7.88,7.88,0,0,1,3-3.22,8.22,8.22,0,0,1,4.34-1.16,7.36,7.36,0,0,1,5.63,2.16,8.27,8.27,0,0,1,2,5.91Z"/><rect class="cls-2" x="167.23" y="270.88" width="5.16" height="24.76"/><path class="cls-2" d="M186.3,285.57q0-3.59-2.91-3.59a2.82,2.82,0,0,0-2.15,1,4.41,4.41,0,0,0-1.09,2.56Zm4.78,3.17H180.18q.26,3.64,4.59,3.64a9.06,9.06,0,0,0,4.85-1.31v3.72a12.73,12.73,0,0,1-6,1.24,7.76,7.76,0,0,1-8.52-8.51,10.08,10.08,0,0,1,1.05-4.65,7.88,7.88,0,0,1,3-3.22,8.22,8.22,0,0,1,4.34-1.16,7.36,7.36,0,0,1,5.63,2.16,8.27,8.27,0,0,1,2,5.91Z"/><path class="cls-2" d="M204.39,283.57a4.42,4.42,0,0,0-2.17-.51,3.14,3.14,0,0,0-2.64,1.22,5.4,5.4,0,0,0-.94,3.37v8h-5.16V278.91h5.16V282h.07q1.22-3.4,4.41-3.4a3.41,3.41,0,0,1,1.27.2Z"/><path class="cls-2" d="M215.19,287.71l-3,.39q-2.51.31-2.51,2.27a1.9,1.9,0,0,0,.6,1.45,2.34,2.34,0,0,0,1.67.56,3.07,3.07,0,0,0,2.36-1,3.6,3.6,0,0,0,.92-2.55Zm4.85,7.92h-4.88v-2.4h-.07a5.45,5.45,0,0,1-5,2.81,5.22,5.22,0,0,1-3.81-1.38,4.91,4.91,0,0,1-1.41-3.68q0-4.85,5.76-5.62l4.54-.6q0-2.74-3-2.74a10,10,0,0,0-5.68,1.78v-3.89a12.29,12.29,0,0,1,3-1,16,16,0,0,1,3.4-.44q7.15,0,7.15,7.14Z"/><path class="cls-2" d="M233.56,295.44a7.62,7.62,0,0,1-3.44.6q-5.46,0-5.46-5.67v-7.66h-2.71v-3.8h2.71V275.3l5.14-1.47v5.08h3.76v3.8H229.8v6.76q0,2.61,2.07,2.61a3.5,3.5,0,0,0,1.68-.47Z"/><path class="cls-2" d="M241,295.63H235.8V278.91H241Zm.43-22a2.49,2.49,0,0,1-.83,1.93,3.06,3.06,0,0,1-2.15.75,3,3,0,0,1-2.15-.77,2.5,2.5,0,0,1-.83-1.91,2.4,2.4,0,0,1,.84-1.89,3.11,3.11,0,0,1,2.13-.73,3,3,0,0,1,2.14.76,2.43,2.43,0,0,1,.83,1.87"/><path class="cls-2" d="M260.78,295.63h-5.14v-9.29q0-3.88-2.78-3.89a2.78,2.78,0,0,0-2.19,1,3.87,3.87,0,0,0-.88,2.62v9.54h-5.16V278.91h5.16v2.64h.07a5.89,5.89,0,0,1,5.37-3.05q5.55,0,5.55,6.89Z"/><path class="cls-2" d="M275.49,287.6v-1.32a4,4,0,0,0-1-2.73,3.08,3.08,0,0,0-2.42-1.09,3.16,3.16,0,0,0-2.7,1.33,6.33,6.33,0,0,0-1,3.78,5.35,5.35,0,0,0,.92,3.32,3,3,0,0,0,2.56,1.21,3.16,3.16,0,0,0,2.59-1.23,5.06,5.06,0,0,0,1-3.26m5.09,6.12a9.43,9.43,0,0,1-2.71,7.22q-2.71,2.55-7.79,2.55a12.5,12.5,0,0,1-5.36-1v-4.34a10.25,10.25,0,0,0,5.21,1.5,5.64,5.64,0,0,0,4-1.37,4.93,4.93,0,0,0,1.45-3.76v-1.32h-.06a5.76,5.76,0,0,1-5.21,2.81,6.27,6.27,0,0,1-5.07-2.25,9.11,9.11,0,0,1-1.89-6,10.32,10.32,0,0,1,2.06-6.69,6.74,6.74,0,0,1,5.54-2.55,5.05,5.05,0,0,1,4.57,2.35h.06v-1.94h5.16Z"/><polygon class="cls-2" points="116.97 325.73 111.67 325.73 111.67 316.19 101.97 316.19 101.97 325.73 96.7 325.73 96.7 302.31 101.97 302.31 101.97 311.65 111.67 311.65 111.67 302.31 116.97 302.31 116.97 325.73"/><path class="cls-2" d="M137,325.73h-5.14v-2.55h-.08a5.79,5.79,0,0,1-5.11,3q-5.81,0-5.81-7V309H126v9.63q0,3.54,2.81,3.54a2.74,2.74,0,0,0,2.23-1,4,4,0,0,0,.83-2.61V309H137Z"/><path class="cls-2" d="M152.81,317a5.19,5.19,0,0,0-.9-3.25,3,3,0,0,0-2.53-1.16,3.26,3.26,0,0,0-2.58,1.17,4.43,4.43,0,0,0-1,3v1.71a4,4,0,0,0,.91,2.66,3,3,0,0,0,2.4,1.08,3.16,3.16,0,0,0,2.74-1.36,6.62,6.62,0,0,0,1-3.86m5.29-.07a12,12,0,0,1-.92,4.83,7.37,7.37,0,0,1-2.64,3.26,6.89,6.89,0,0,1-3.94,1.15,5.24,5.24,0,0,1-4.67-2.35h-.07v1.94h-5.16V301h5.16v10.55h.07a6.1,6.1,0,0,1,5.44-2.92,6,6,0,0,1,5,2.19,9.46,9.46,0,0,1,1.77,6.11"/></svg>