<svg id="Layer_1" data-name="Layer 1" xmlns="http://www.w3.org/2000/svg" viewBox="0 0 390 380"><defs><style>.cls-1{fill:#12c0f1;}.cls-2{fill:#2e78bc;}.cls-3{fill:#263e7f;}.cls-4{fill:#5a3d96;}.cls-5{fill:#2f245d;}.cls-6{fill:#fff;}.cls-7{fill:#f06724;}.cls-8{fill:#8cc540;}.cls-9{fill:#29abe2;}.cls-10{fill:#ffc113;}.cls-11{fill:#48c7f4;}.cls-12{fill:#0b72ba;}</style></defs><title>RectorLogo</title><rect class="cls-1" x="254.49" y="-7.03" width="512.47" height="133.73"/><rect class="cls-2" x="255.22" y="126.71" width="359.15" height="121.38"/><polyline class="cls-3" points="434.79 377.47 0.23 377.47 0.23 -0.3 434.79 -0.3"/><rect class="cls-4" x="0.23" y="352.85" width="472.48" height="136.52"/><rect class="cls-5" x="0.23" y="276.4" width="553.83" height="138.09"/><polygon class="cls-6" points="164.86 54.65 164.86 74.64 169.32 74.64 169.32 48.66 163.14 48.66 155.28 67.96 147.65 48.66 141.21 48.66 141.21 74.64 145.41 74.64 145.41 54.65 145.56 54.65 153.61 74.64 156.78 74.64 164.71 54.65 164.86 54.65"/><path class="cls-6" d="M177.93,56h-4.38V74.64h4.38Zm-2.15-7.93a2.64,2.64,0,0,0-1.87.73,2.41,2.41,0,0,0-.78,1.83,2.34,2.34,0,0,0,.77,1.79,2.67,2.67,0,0,0,1.87.71,2.7,2.7,0,0,0,1.88-.71,2.34,2.34,0,0,0,.78-1.79,2.46,2.46,0,0,0-.76-1.81,2.62,2.62,0,0,0-1.9-.75"/><path class="cls-6" d="M191,55.58a10.8,10.8,0,0,0-5.32,1.28,8.61,8.61,0,0,0-3.51,3.61,11.49,11.49,0,0,0-1.21,5.35,9.86,9.86,0,0,0,1.17,4.79,8.24,8.24,0,0,0,3.28,3.31,9.74,9.74,0,0,0,4.78,1.16,10.49,10.49,0,0,0,5.28-1.24l.06,0v-4l-.18.13a8.29,8.29,0,0,1-2.14,1.12,6.47,6.47,0,0,1-2.1.41,5.39,5.39,0,0,1-4.1-1.6,6.21,6.21,0,0,1-1.51-4.43,6.45,6.45,0,0,1,1.58-4.54,5.36,5.36,0,0,1,4.11-1.69,7,7,0,0,1,4.17,1.45l.18.13V56.56l-.06,0a7.23,7.23,0,0,0-2-.68,12,12,0,0,0-2.45-.26"/><path class="cls-6" d="M203.21,59.25V56h-4.38V74.64h4.38V65.12a6.64,6.64,0,0,1,1.09-4,3.35,3.35,0,0,1,2.83-1.5,5.12,5.12,0,0,1,1.32.19,3.33,3.33,0,0,1,1,.41l.18.13V56l-.07,0a4.55,4.55,0,0,0-1.71-.26,4.48,4.48,0,0,0-2.93,1.05,5.92,5.92,0,0,0-1.68,2.5Z"/><path class="cls-6" d="M219.6,71.46a4.7,4.7,0,0,1-3.77-1.58,6.73,6.73,0,0,1-1.36-4.48,7,7,0,0,1,1.36-4.59,4.63,4.63,0,0,1,3.74-1.61,4.56,4.56,0,0,1,3.64,1.54,6.85,6.85,0,0,1,1.33,4.56,7.31,7.31,0,0,1-1.25,4.61,4.45,4.45,0,0,1-3.68,1.55m.2-15.89a9.72,9.72,0,0,0-7.25,2.67,10,10,0,0,0-2.62,7.3,9.49,9.49,0,0,0,2.56,7,9.27,9.27,0,0,0,6.86,2.57,9.46,9.46,0,0,0,7.1-2.71,10,10,0,0,0,2.62-7.23,9.75,9.75,0,0,0-2.46-7,9,9,0,0,0-6.81-2.56"/><path class="cls-6" d="M238.29,55.58a8,8,0,0,0-5.13,1.59,5.06,5.06,0,0,0-2,4.13,5.76,5.76,0,0,0,.43,2.31,4.63,4.63,0,0,0,1.32,1.73,11.55,11.55,0,0,0,2.69,1.51,19.88,19.88,0,0,1,2.24,1,3.11,3.11,0,0,1,1,.81,1.81,1.81,0,0,1,.28,1.06c0,1.25-.94,1.86-2.86,1.86a7.86,7.86,0,0,1-2.42-.44,9.14,9.14,0,0,1-2.48-1.26l-.18-.13V74l.07,0a11,11,0,0,0,2.35.73,12.62,12.62,0,0,0,2.51.29,8.51,8.51,0,0,0,5.42-1.6,5.16,5.16,0,0,0,2-4.23,4.86,4.86,0,0,0-1.09-3.2,9.31,9.31,0,0,0-3.69-2.35,9.57,9.57,0,0,1-2.63-1.37,1.92,1.92,0,0,1-.53-1.43,1.59,1.59,0,0,1,.67-1.33,3,3,0,0,1,1.89-.53,7.67,7.67,0,0,1,2.25.35,7.24,7.24,0,0,1,2,.91l.18.12v-4l-.07,0a9.72,9.72,0,0,0-2-.55,12.13,12.13,0,0,0-2.18-.23"/><path class="cls-6" d="M255.11,71.46a4.7,4.7,0,0,1-3.77-1.58A6.73,6.73,0,0,1,250,65.4a7,7,0,0,1,1.36-4.59,4.62,4.62,0,0,1,3.73-1.61,4.56,4.56,0,0,1,3.64,1.54A6.86,6.86,0,0,1,260,65.3a7.32,7.32,0,0,1-1.25,4.61,4.45,4.45,0,0,1-3.68,1.55m.2-15.89a9.72,9.72,0,0,0-7.24,2.67,10,10,0,0,0-2.62,7.3,9.5,9.5,0,0,0,2.55,7,9.27,9.27,0,0,0,6.86,2.57,9.46,9.46,0,0,0,7.1-2.71,10,10,0,0,0,2.62-7.23,9.75,9.75,0,0,0-2.46-7,9,9,0,0,0-6.82-2.56"/><path class="cls-6" d="M287.93,59.6V56H283.5V50.47l-.15,0-4.16,1.27-.08,0V56h-6.57V53.68a3.72,3.72,0,0,1,.72-2.48,2.55,2.55,0,0,1,2-.83,4.75,4.75,0,0,1,1.93.44l.16.07V47.12l-.08,0a7.51,7.51,0,0,0-2.46-.33,7.23,7.23,0,0,0-3.49.84,6,6,0,0,0-2.4,2.37,7.08,7.08,0,0,0-.85,3.48V56H265V59.6h3.09v15h4.43v-15h6.57v9.56c0,3.94,1.86,5.93,5.52,5.93a9.11,9.11,0,0,0,1.88-.21,5.17,5.17,0,0,0,1.37-.44l.06,0V70.81l-.18.12a3.09,3.09,0,0,1-.89.39,3.39,3.39,0,0,1-.88.15,2.38,2.38,0,0,1-1.89-.69,3.7,3.7,0,0,1-.6-2.39V59.6Z"/><rect class="cls-7" x="84.87" y="39.99" width="20.6" height="20.6"/><rect class="cls-8" x="107.62" y="39.99" width="20.6" height="20.6"/><rect class="cls-9" x="84.88" y="62.74" width="20.6" height="20.6"/><rect class="cls-10" x="107.62" y="62.74" width="20.6" height="20.6"/><rect class="cls-11" x="72.57" y="117.21" width="231.92" height="231.92"/><rect class="cls-12" x="72.57" y="117.21" width="231.92" height="86.79"/><path class="cls-6" d="M99.67,144.29v17.77h7.15a10.78,10.78,0,0,0,7.57-2.53,8.76,8.76,0,0,0,2.76-6.79,7.9,7.9,0,0,0-2.5-6.22q-2.5-2.23-7.22-2.23Zm18.38,38.88L112.53,171a14,14,0,0,0-3.31-5,6.72,6.72,0,0,0-4.39-1.36H99.67v18.5H96.81V141.66h11.52a12.25,12.25,0,0,1,8.55,2.93,10.09,10.09,0,0,1,3.23,7.87,11.06,11.06,0,0,1-2.61,7.5,12.15,12.15,0,0,1-7.18,3.88v.11q2.46,1,4.8,6l6.17,13.23Z"/><path class="cls-6" d="M148.94,166q-.17-5.15-2.48-8a7.69,7.69,0,0,0-6.3-2.82,9.22,9.22,0,0,0-6.92,2.81,13.49,13.49,0,0,0-3.36,8Zm-19.16,2.43q0,6.16,2.84,9.58a9.51,9.51,0,0,0,7.73,3.42,15.67,15.67,0,0,0,9.73-3.68v2.84a17.41,17.41,0,0,1-10.28,3.27,11.46,11.46,0,0,1-9.32-4.21Q127,175.47,127,168.17a17.67,17.67,0,0,1,1.72-7.83,13.48,13.48,0,0,1,4.78-5.54,12.12,12.12,0,0,1,6.79-2,10.11,10.11,0,0,1,8.42,3.82q3,3.82,3,10.65v1.19Z"/><path class="cls-6" d="M160.2,175.41a5.67,5.67,0,0,0,1.79,4.41,6.9,6.9,0,0,0,4.83,1.64,9.11,9.11,0,0,0,7.14-3.2,11.86,11.86,0,0,0,2.82-8.15v-2.9l-8.16,1.19q-5,.75-6.69,2.27a6,6,0,0,0-1.74,4.73m16.59,7.76v-5.94h-.12a11.53,11.53,0,0,1-4.15,4.85,10.62,10.62,0,0,1-6,1.81,9.42,9.42,0,0,1-6.62-2.32,7.81,7.81,0,0,1-2.53-6q0-7.79,10.28-9.38l9.12-1.36q0-9.55-7.18-9.55-4.89,0-9.52,3.94V156a14.66,14.66,0,0,1,4.53-2.21,17.27,17.27,0,0,1,5.25-.94,9,9,0,0,1,7.09,2.82q2.49,2.82,2.49,8.26v19.28Z"/><path class="cls-6" d="M207.56,181.86a14.66,14.66,0,0,1-7.87,2,13.12,13.12,0,0,1-7-1.9,12.56,12.56,0,0,1-4.76-5.34,18.8,18.8,0,0,1,.25-16.05,14.13,14.13,0,0,1,5.31-5.76,14.52,14.52,0,0,1,7.64-2,16.27,16.27,0,0,1,6.57,1.39v3a13,13,0,0,0-7-2,11,11,0,0,0-6.08,1.72,11.31,11.31,0,0,0-4.15,4.8,16,16,0,0,0-1.46,6.93,13.92,13.92,0,0,0,3,9.23,9.71,9.71,0,0,0,7.85,3.53,12.86,12.86,0,0,0,7.76-2.37Z"/><path class="cls-6" d="M226.41,182.76a9.08,9.08,0,0,1-3.91,1q-6.57,0-6.57-7.87V156H210.6v-2.43h5.33v-7.7l2.66-.9v8.6h7.82V156h-7.82v19.57a7.88,7.88,0,0,0,1,4.44,3.74,3.74,0,0,0,3.28,1.38,7.24,7.24,0,0,0,3.56-1.07Z"/><path class="cls-6" d="M244.38,155.23a10.55,10.55,0,0,0-8.35,3.55q-3.11,3.55-3.11,9.8,0,5.88,3.08,9.38a10.46,10.46,0,0,0,8.26,3.5,10.16,10.16,0,0,0,8.22-3.47q2.92-3.48,2.92-9.64,0-6.37-2.87-9.74t-8.16-3.37m-.2,28.66a13.09,13.09,0,0,1-10.23-4.23q-3.81-4.23-3.81-11.14,0-7.27,3.89-11.49a13.53,13.53,0,0,1,10.46-4.23,12.67,12.67,0,0,1,10,4.17q3.68,4.17,3.68,11.43,0,6.95-3.82,11.22a13,13,0,0,1-10.19,4.27"/><path class="cls-6" d="M279.53,156.3a5.3,5.3,0,0,0-3.13-1,6.23,6.23,0,0,0-4.26,1.68,11,11,0,0,0-2.94,4.86,23.33,23.33,0,0,0-1.06,7.35v13.92h-2.61V153.52h2.61v6.57h.12a10.7,10.7,0,0,1,3.21-5.28,7.63,7.63,0,0,1,5.09-1.87,7.89,7.89,0,0,1,3,.52Z"/><rect class="cls-6" x="97.88" y="232.62" width="5.28" height="23.42"/><path class="cls-6" d="M118.6,247.9v-1.26a3.93,3.93,0,0,0-1-2.71,3.14,3.14,0,0,0-2.46-1.08,3.11,3.11,0,0,0-2.68,1.35,6.25,6.25,0,0,0-1,3.7,5.49,5.49,0,0,0,.91,3.39,3.31,3.31,0,0,0,5.15-.06,5.24,5.24,0,0,0,1-3.33m5.06,8.13H118.5v-2.3h-.07a5.78,5.78,0,0,1-5.18,2.71,6.26,6.26,0,0,1-5.08-2.26,9.31,9.31,0,0,1-1.88-6.13,10,10,0,0,1,2.11-6.64,6.86,6.86,0,0,1,5.52-2.51,4.7,4.7,0,0,1,4.51,2.32h.07v-9.95h5.16Z"/><path class="cls-6" d="M137.57,246q0-3.59-2.91-3.59a2.82,2.82,0,0,0-2.15,1,4.41,4.41,0,0,0-1.09,2.56Zm4.78,3.17H131.45q.26,3.64,4.59,3.64a9.06,9.06,0,0,0,4.85-1.31v3.72a12.73,12.73,0,0,1-6,1.24,7.76,7.76,0,0,1-8.52-8.51,10.07,10.07,0,0,1,1.05-4.65,7.87,7.87,0,0,1,3-3.22,8.22,8.22,0,0,1,4.34-1.16,7.36,7.36,0,0,1,5.63,2.16,8.27,8.27,0,0,1,2,5.91Z"/><path class="cls-6" d="M153.82,248.12l-3,.39q-2.51.31-2.51,2.27a1.9,1.9,0,0,0,.6,1.45,2.34,2.34,0,0,0,1.67.56,3.07,3.07,0,0,0,2.36-1,3.6,3.6,0,0,0,.92-2.55Zm4.85,7.92h-4.88v-2.4h-.07a5.45,5.45,0,0,1-5,2.81,5.22,5.22,0,0,1-3.81-1.38,4.91,4.91,0,0,1-1.41-3.68q0-4.85,5.76-5.62l4.54-.6q0-2.74-3-2.74a10,10,0,0,0-5.68,1.78v-3.89a12.28,12.28,0,0,1,3-1,16.08,16.08,0,0,1,3.4-.44q7.15,0,7.15,7.14Z"/><path class="cls-6" d="M109.84,276.87,107.33,269a9.69,9.69,0,0,1-.39-2.11h-.13a10.31,10.31,0,0,1-.41,2l-2.55,7.94Zm8.62,9.26h-5.75l-1.67-5.21h-8.33l-1.65,5.21H95.36l8.52-23.42h6.25Z"/><path class="cls-6" d="M132.89,285.53a10.21,10.21,0,0,1-5,1,9.3,9.3,0,0,1-4.45-1.05,7.59,7.59,0,0,1-3.07-3,8.54,8.54,0,0,1-1.1-4.33,8.94,8.94,0,0,1,2.54-6.69,9.36,9.36,0,0,1,6.85-2.49,8.73,8.73,0,0,1,4.28.78v4.38a5.92,5.92,0,0,0-3.61-1.21,4.65,4.65,0,0,0-3.54,1.34,4.93,4.93,0,0,0-1.27,3.54,4.76,4.76,0,0,0,1.25,3.48,4.55,4.55,0,0,0,3.4,1.27,6.81,6.81,0,0,0,3.77-1.21Z"/><path class="cls-6" d="M148.27,285.53a10.21,10.21,0,0,1-5,1,9.3,9.3,0,0,1-4.45-1.05,7.59,7.59,0,0,1-3.07-3,8.54,8.54,0,0,1-1.1-4.33,8.94,8.94,0,0,1,2.54-6.69A9.36,9.36,0,0,1,144,269a8.73,8.73,0,0,1,4.28.78v4.38a5.92,5.92,0,0,0-3.61-1.21,4.65,4.65,0,0,0-3.54,1.34,4.93,4.93,0,0,0-1.27,3.54,4.76,4.76,0,0,0,1.25,3.48,4.55,4.55,0,0,0,3.4,1.27,6.81,6.81,0,0,0,3.77-1.21Z"/><path class="cls-6" d="M161.22,276.07q0-3.59-2.91-3.59a2.82,2.82,0,0,0-2.15,1,4.41,4.41,0,0,0-1.09,2.56Zm4.78,3.17H155.09q.26,3.64,4.59,3.64a9.06,9.06,0,0,0,4.85-1.31v3.72a12.73,12.73,0,0,1-6,1.24A7.76,7.76,0,0,1,150,278a10.08,10.08,0,0,1,1.05-4.65,7.88,7.88,0,0,1,3-3.22,8.22,8.22,0,0,1,4.34-1.16,7.36,7.36,0,0,1,5.63,2.16,8.27,8.27,0,0,1,2,5.91Z"/><rect class="cls-6" x="168.41" y="261.38" width="5.16" height="24.76"/><path class="cls-6" d="M187.48,276.07q0-3.59-2.91-3.59a2.82,2.82,0,0,0-2.15,1,4.41,4.41,0,0,0-1.09,2.56Zm4.78,3.17H181.35q.26,3.64,4.59,3.64a9.06,9.06,0,0,0,4.85-1.31v3.72a12.73,12.73,0,0,1-6,1.24,7.76,7.76,0,0,1-8.52-8.51,10.08,10.08,0,0,1,1.05-4.65,7.88,7.88,0,0,1,3-3.22A8.22,8.22,0,0,1,184.6,269a7.36,7.36,0,0,1,5.63,2.16,8.27,8.27,0,0,1,2,5.91Z"/><path class="cls-6" d="M205.57,274.07a4.42,4.42,0,0,0-2.17-.51,3.14,3.14,0,0,0-2.64,1.22,5.4,5.4,0,0,0-.94,3.37v8h-5.16V269.41h5.16v3.1h.07q1.22-3.4,4.41-3.4a3.41,3.41,0,0,1,1.27.2Z"/><path class="cls-6" d="M216.36,278.21l-3,.39q-2.51.31-2.51,2.27a1.9,1.9,0,0,0,.6,1.45,2.34,2.34,0,0,0,1.67.56,3.07,3.07,0,0,0,2.36-1,3.6,3.6,0,0,0,.92-2.55Zm4.85,7.92h-4.88v-2.4h-.07a5.45,5.45,0,0,1-5,2.81,5.22,5.22,0,0,1-3.81-1.38,4.91,4.91,0,0,1-1.41-3.68q0-4.85,5.76-5.62l4.54-.6q0-2.74-3-2.74a10,10,0,0,0-5.68,1.78v-3.89a12.29,12.29,0,0,1,3-1,16,16,0,0,1,3.4-.44q7.15,0,7.15,7.14Z"/><path class="cls-6" d="M234.73,285.94a7.62,7.62,0,0,1-3.44.6q-5.46,0-5.46-5.67v-7.66h-2.71v-3.8h2.71V265.8l5.14-1.47v5.08h3.76v3.8H231V280q0,2.61,2.07,2.61a3.5,3.5,0,0,0,1.68-.47Z"/><path class="cls-6" d="M242.13,286.13H237V269.41h5.16Zm.43-22a2.49,2.49,0,0,1-.83,1.93,3.06,3.06,0,0,1-2.15.75,3,3,0,0,1-2.15-.77,2.5,2.5,0,0,1-.83-1.91,2.4,2.4,0,0,1,.84-1.89,3.11,3.11,0,0,1,2.13-.73,3,3,0,0,1,2.14.76,2.43,2.43,0,0,1,.83,1.87"/><path class="cls-6" d="M262,286.13h-5.14v-9.29q0-3.88-2.78-3.89a2.78,2.78,0,0,0-2.19,1,3.87,3.87,0,0,0-.88,2.62v9.54h-5.16V269.41H251v2.64H251A5.89,5.89,0,0,1,256.4,269q5.55,0,5.55,6.89Z"/><path class="cls-6" d="M276.67,278.1v-1.32a4,4,0,0,0-1-2.73,3.08,3.08,0,0,0-2.42-1.09,3.16,3.16,0,0,0-2.7,1.33,6.33,6.33,0,0,0-1,3.78,5.35,5.35,0,0,0,.92,3.32,3,3,0,0,0,2.56,1.21,3.16,3.16,0,0,0,2.59-1.23,5.06,5.06,0,0,0,1-3.26m5.09,6.12a9.43,9.43,0,0,1-2.71,7.22q-2.71,2.55-7.79,2.55a12.5,12.5,0,0,1-5.36-1v-4.34a10.25,10.25,0,0,0,5.21,1.5,5.64,5.64,0,0,0,4-1.37,4.93,4.93,0,0,0,1.45-3.76v-1.32h-.06a5.76,5.76,0,0,1-5.21,2.81,6.27,6.27,0,0,1-5.07-2.25,9.11,9.11,0,0,1-1.89-6,10.32,10.32,0,0,1,2.06-6.69A6.74,6.74,0,0,1,272,269a5.05,5.05,0,0,1,4.57,2.35h.06v-1.94h5.16Z"/><polygon class="cls-6" points="118.14 316.23 112.85 316.23 112.85 306.69 103.15 306.69 103.15 316.23 97.88 316.23 97.88 292.81 103.15 292.81 103.15 302.15 112.85 302.15 112.85 292.81 118.14 292.81 118.14 316.23"/><path class="cls-6" d="M138.21,316.23h-5.14v-2.55H133a5.79,5.79,0,0,1-5.11,3q-5.81,0-5.81-7V299.51h5.14v9.63q0,3.54,2.81,3.54a2.74,2.74,0,0,0,2.23-1,4,4,0,0,0,.83-2.61v-9.57h5.14Z"/><path class="cls-6" d="M154,307.46a5.19,5.19,0,0,0-.9-3.25,3,3,0,0,0-2.53-1.16,3.26,3.26,0,0,0-2.58,1.17,4.43,4.43,0,0,0-1,3v1.71a4,4,0,0,0,.91,2.66,3,3,0,0,0,2.4,1.08,3.16,3.16,0,0,0,2.74-1.36,6.62,6.62,0,0,0,1-3.86m5.29-.07a12,12,0,0,1-.92,4.83,7.37,7.37,0,0,1-2.64,3.26,6.89,6.89,0,0,1-3.94,1.15,5.24,5.24,0,0,1-4.67-2.35H147v1.94h-5.16V291.47H147V302h.07a6.1,6.1,0,0,1,5.44-2.92,6,6,0,0,1,5,2.19,9.46,9.46,0,0,1,1.77,6.11"/></svg>