<svg id="Layer_1" data-name="Layer 1" xmlns="http://www.w3.org/2000/svg" viewBox="0 0 385.74 389"><defs><style>.cls-1{fill:#263e7f;}.cls-2{fill:#fff;}.cls-3{fill:#f06724;}.cls-4{fill:#8cc540;}.cls-5{fill:#29abe2;}.cls-6{fill:#ffc113;}.cls-7{fill:#48c7f4;}.cls-8{fill:#0b72ba;}</style></defs><title>reactorlogo</title><polyline class="cls-1" points="389.77 396.02 0 396.02 0 -3.24 389.77 -3.24"/><polygon class="cls-2" points="158.97 43.27 158.97 62.24 163.21 62.24 163.21 37.59 157.34 37.59 149.88 55.9 142.64 37.59 136.53 37.59 136.53 62.24 140.52 62.24 140.52 43.27 140.66 43.27 148.3 62.24 151.31 62.24 158.83 43.27 158.97 43.27"/><path class="cls-2" d="M171.37,44.57h-4.16V62.24h4.16Zm-2-7.52a2.5,2.5,0,0,0-1.77.69,2.29,2.29,0,0,0-.74,1.73,2.22,2.22,0,0,0,.73,1.7,2.53,2.53,0,0,0,1.78.68,2.56,2.56,0,0,0,1.79-.68,2.22,2.22,0,0,0,.74-1.7,2.34,2.34,0,0,0-.72-1.72,2.48,2.48,0,0,0-1.81-.71"/><path class="cls-2" d="M183.76,44.15a10.25,10.25,0,0,0-5.05,1.22,8.17,8.17,0,0,0-3.33,3.43,10.91,10.91,0,0,0-1.14,5.08,9.36,9.36,0,0,0,1.11,4.55,7.82,7.82,0,0,0,3.11,3.14,9.24,9.24,0,0,0,4.54,1.1,10,10,0,0,0,5-1.17l.06,0V57.65l-.17.13a7.86,7.86,0,0,1-2,1.06,6.14,6.14,0,0,1-2,.39A5.11,5.11,0,0,1,180,57.71a5.9,5.9,0,0,1-1.44-4.2,6.12,6.12,0,0,1,1.5-4.31,5.09,5.09,0,0,1,3.9-1.61,6.67,6.67,0,0,1,4,1.38l.17.13v-4L188,45a6.87,6.87,0,0,0-1.92-.65,11.41,11.41,0,0,0-2.32-.25"/><path class="cls-2" d="M195.36,47.63V44.57h-4.16V62.24h4.16v-9a6.3,6.3,0,0,1,1-3.75A3.18,3.18,0,0,1,199.08,48a4.86,4.86,0,0,1,1.25.18,3.16,3.16,0,0,1,1,.39l.17.13V44.54l-.07,0a4.31,4.31,0,0,0-1.63-.25,4.25,4.25,0,0,0-2.78,1,5.62,5.62,0,0,0-1.6,2.37Z"/><path class="cls-2" d="M210.92,59.22a4.46,4.46,0,0,1-3.58-1.5,6.39,6.39,0,0,1-1.29-4.25,6.65,6.65,0,0,1,1.29-4.36,4.39,4.39,0,0,1,3.55-1.53A4.32,4.32,0,0,1,214.34,49a6.5,6.5,0,0,1,1.26,4.32,6.93,6.93,0,0,1-1.19,4.38,4.22,4.22,0,0,1-3.49,1.47m.19-15.08a9.22,9.22,0,0,0-6.88,2.54,9.51,9.51,0,0,0-2.48,6.93,9,9,0,0,0,2.43,6.61,8.8,8.8,0,0,0,6.51,2.44,9,9,0,0,0,6.74-2.57,9.49,9.49,0,0,0,2.48-6.86,9.26,9.26,0,0,0-2.33-6.66,8.58,8.58,0,0,0-6.47-2.43"/><path class="cls-2" d="M228.66,44.15a7.6,7.6,0,0,0-4.87,1.51,4.8,4.8,0,0,0-1.9,3.92,5.47,5.47,0,0,0,.41,2.19,4.39,4.39,0,0,0,1.26,1.64,11,11,0,0,0,2.56,1.43,18.87,18.87,0,0,1,2.13,1,3,3,0,0,1,.94.77,1.72,1.72,0,0,1,.26,1c0,1.19-.89,1.76-2.72,1.76a7.46,7.46,0,0,1-2.3-.42,8.68,8.68,0,0,1-2.35-1.19l-.17-.13v4l.06,0a10.42,10.42,0,0,0,2.23.69,12,12,0,0,0,2.38.28,8.08,8.08,0,0,0,5.15-1.51,4.9,4.9,0,0,0,1.91-4,4.61,4.61,0,0,0-1-3,8.84,8.84,0,0,0-3.5-2.23,9.08,9.08,0,0,1-2.49-1.3,1.82,1.82,0,0,1-.5-1.36,1.51,1.51,0,0,1,.64-1.26,2.86,2.86,0,0,1,1.79-.51,7.27,7.27,0,0,1,2.13.33,6.87,6.87,0,0,1,1.86.86l.17.12V44.92l-.07,0a9.22,9.22,0,0,0-1.89-.53,11.52,11.52,0,0,0-2.07-.22"/><path class="cls-2" d="M244.61,59.22a4.46,4.46,0,0,1-3.58-1.5,6.39,6.39,0,0,1-1.29-4.25A6.64,6.64,0,0,1,241,49.11a4.39,4.39,0,0,1,3.54-1.53A4.32,4.32,0,0,1,248,49a6.51,6.51,0,0,1,1.26,4.32,6.94,6.94,0,0,1-1.19,4.38,4.22,4.22,0,0,1-3.49,1.47m.19-15.08a9.22,9.22,0,0,0-6.88,2.54,9.51,9.51,0,0,0-2.48,6.93,9,9,0,0,0,2.42,6.61,8.8,8.8,0,0,0,6.51,2.44,9,9,0,0,0,6.74-2.57,9.49,9.49,0,0,0,2.48-6.86,9.25,9.25,0,0,0-2.33-6.66,8.58,8.58,0,0,0-6.47-2.43"/><path class="cls-2" d="M275.76,48V44.57h-4.21V39.3l-.14,0-4,1.21-.08,0v4h-6.24V42.35a3.53,3.53,0,0,1,.69-2.36,2.42,2.42,0,0,1,1.93-.79,4.51,4.51,0,0,1,1.83.42l.15.07V36.12l-.07,0a7.13,7.13,0,0,0-2.34-.31,6.86,6.86,0,0,0-3.31.8,5.68,5.68,0,0,0-2.28,2.25,6.72,6.72,0,0,0-.81,3.3v2.44H254V48h2.93V62.24h4.21V48h6.24V57c0,3.74,1.76,5.63,5.24,5.63a8.64,8.64,0,0,0,1.79-.2,4.9,4.9,0,0,0,1.3-.41l.06,0V58.6l-.17.11a2.93,2.93,0,0,1-.84.37,3.22,3.22,0,0,1-.83.14,2.26,2.26,0,0,1-1.79-.65,3.51,3.51,0,0,1-.57-2.27V48Z"/><rect class="cls-3" x="83.07" y="29.35" width="19.55" height="19.55"/><rect class="cls-4" x="104.65" y="29.35" width="19.55" height="19.55"/><rect class="cls-5" x="83.07" y="50.94" width="19.55" height="19.55"/><rect class="cls-6" x="104.65" y="50.94" width="19.55" height="19.55"/><rect class="cls-7" x="71.39" y="96.14" width="220.08" height="220.08"/><rect class="cls-8" x="71.39" y="96.14" width="220.08" height="82.36"/><path class="cls-2" d="M97.11,121.84V138.7h6.78a10.23,10.23,0,0,0,7.18-2.4,8.31,8.31,0,0,0,2.62-6.44,7.5,7.5,0,0,0-2.38-5.91q-2.38-2.12-6.85-2.11Zm17.44,36.89-5.25-11.54a13.28,13.28,0,0,0-3.14-4.72,6.37,6.37,0,0,0-4.16-1.29H97.11v17.55H94.39V119.34h10.93a11.62,11.62,0,0,1,8.12,2.78,9.58,9.58,0,0,1,3.06,7.47A10.49,10.49,0,0,1,114,136.7a11.53,11.53,0,0,1-6.81,3.68v.11q2.33.93,4.56,5.69l5.85,12.55Z"/><path class="cls-2" d="M143.87,142.47q-.16-4.89-2.35-7.57a7.29,7.29,0,0,0-6-2.68,8.75,8.75,0,0,0-6.57,2.66,12.81,12.81,0,0,0-3.19,7.58Zm-18.18,2.31q0,5.85,2.69,9.09a9,9,0,0,0,7.34,3.24,14.87,14.87,0,0,0,9.23-3.49v2.69a16.52,16.52,0,0,1-9.75,3.1,10.88,10.88,0,0,1-8.85-4q-3.3-4-3.3-10.92a16.77,16.77,0,0,1,1.64-7.43,12.8,12.8,0,0,1,4.53-5.26,11.5,11.5,0,0,1,6.44-1.9,9.6,9.6,0,0,1,8,3.63q2.86,3.62,2.86,10.11v1.13Z"/><path class="cls-2" d="M154.55,151.37a5.38,5.38,0,0,0,1.7,4.19,6.55,6.55,0,0,0,4.59,1.55,8.64,8.64,0,0,0,6.77-3,11.26,11.26,0,0,0,2.68-7.73v-2.75l-7.75,1.13q-4.7.71-6.34,2.16a5.66,5.66,0,0,0-1.65,4.49m15.74,7.36V153.1h-.11a10.94,10.94,0,0,1-3.94,4.6,10.08,10.08,0,0,1-5.67,1.72,8.94,8.94,0,0,1-6.28-2.2,7.41,7.41,0,0,1-2.4-5.74q0-7.39,9.75-8.9l8.65-1.29q0-9.06-6.81-9.06a13.89,13.89,0,0,0-9,3.74v-3a13.91,13.91,0,0,1,4.3-2.1,16.39,16.39,0,0,1,5-.89,8.5,8.5,0,0,1,6.73,2.68q2.36,2.68,2.36,7.84v18.3Z"/><path class="cls-2" d="M199.49,157.49a13.91,13.91,0,0,1-7.47,1.92,12.45,12.45,0,0,1-6.66-1.8,11.92,11.92,0,0,1-4.52-5.07,17.84,17.84,0,0,1,.23-15.23,13.41,13.41,0,0,1,5-5.47,13.78,13.78,0,0,1,7.25-1.94,15.44,15.44,0,0,1,6.23,1.32v2.86a12.36,12.36,0,0,0-6.62-1.87,10.48,10.48,0,0,0-5.77,1.64,10.73,10.73,0,0,0-3.94,4.56,15.17,15.17,0,0,0-1.39,6.58,13.21,13.21,0,0,0,2.8,8.76,9.22,9.22,0,0,0,7.45,3.35,12.2,12.2,0,0,0,7.36-2.25Z"/><path class="cls-2" d="M217.38,158.34a8.62,8.62,0,0,1-3.71.93q-6.24,0-6.24-7.47v-18.9h-5.05V130.6h5.05v-7.31l2.53-.85v8.16h7.42v2.31H210v18.57a7.47,7.47,0,0,0,.92,4.22A3.55,3.55,0,0,0,214,157a6.87,6.87,0,0,0,3.38-1Z"/><path class="cls-2" d="M234.44,132.22a10,10,0,0,0-7.93,3.37q-3,3.37-3,9.3,0,5.58,2.93,8.9a9.92,9.92,0,0,0,7.84,3.32,9.64,9.64,0,0,0,7.8-3.3q2.77-3.3,2.77-9.15,0-6-2.72-9.24a9.61,9.61,0,0,0-7.75-3.2m-.19,27.2a12.42,12.42,0,0,1-9.71-4q-3.61-4-3.61-10.58,0-6.9,3.7-10.91a12.84,12.84,0,0,1,9.93-4,12,12,0,0,1,9.5,4q3.49,4,3.49,10.85,0,6.59-3.63,10.65a12.34,12.34,0,0,1-9.67,4.05"/><path class="cls-2" d="M267.78,133.24a5,5,0,0,0-3-.91,5.91,5.91,0,0,0-4,1.59,10.43,10.43,0,0,0-2.79,4.61,22.14,22.14,0,0,0-1,7v13.21h-2.47V130.6H257v6.24h.11a10.15,10.15,0,0,1,3-5,7.24,7.24,0,0,1,4.83-1.77,7.49,7.49,0,0,1,2.8.49Z"/><rect class="cls-2" x="95.41" y="205.66" width="5.01" height="22.22"/><path class="cls-2" d="M115.07,220.16V219a3.73,3.73,0,0,0-.91-2.57,3,3,0,0,0-2.33-1,3,3,0,0,0-2.54,1.28,5.93,5.93,0,0,0-.91,3.51,5.21,5.21,0,0,0,.87,3.22,3.15,3.15,0,0,0,4.89-.05,5,5,0,0,0,.94-3.16m4.8,7.72H115v-2.19h-.06a5.49,5.49,0,0,1-4.91,2.57,5.94,5.94,0,0,1-4.82-2.15,8.84,8.84,0,0,1-1.78-5.82,9.47,9.47,0,0,1,2-6.3,6.51,6.51,0,0,1,5.24-2.38,4.46,4.46,0,0,1,4.28,2.2H115v-9.44h4.9Z"/><path class="cls-2" d="M133.08,218.33q0-3.41-2.76-3.41a2.67,2.67,0,0,0-2,1,4.18,4.18,0,0,0-1,2.42Zm4.54,3H127.27q.25,3.45,4.35,3.45a8.6,8.6,0,0,0,4.6-1.24v3.53a12.08,12.08,0,0,1-5.72,1.18,7.37,7.37,0,0,1-8.09-8.07,9.56,9.56,0,0,1,1-4.42,7.47,7.47,0,0,1,2.82-3.05,7.8,7.8,0,0,1,4.11-1.1,7,7,0,0,1,5.34,2,7.84,7.84,0,0,1,1.93,5.61Z"/><path class="cls-2" d="M148.5,220.36l-2.88.37q-2.39.29-2.39,2.15a1.8,1.8,0,0,0,.57,1.37,2.22,2.22,0,0,0,1.59.53,2.92,2.92,0,0,0,2.24-.94,3.42,3.42,0,0,0,.88-2.42Zm4.6,7.51h-4.63V225.6h-.06a5.17,5.17,0,0,1-4.73,2.67,5,5,0,0,1-3.62-1.31,4.66,4.66,0,0,1-1.34-3.49q0-4.6,5.47-5.33l4.31-.57q0-2.6-2.82-2.6a9.52,9.52,0,0,0-5.39,1.69V213a11.65,11.65,0,0,1,2.8-.91,15.26,15.26,0,0,1,3.22-.42q6.79,0,6.79,6.77Z"/><path class="cls-2" d="M106.77,247.65l-2.39-7.47a9.19,9.19,0,0,1-.37-2h-.12a9.78,9.78,0,0,1-.39,1.94l-2.42,7.53Zm8.18,8.79h-5.45l-1.58-4.94H100l-1.56,4.94H93l8.09-22.22H107Z"/><path class="cls-2" d="M128.63,255.87a9.69,9.69,0,0,1-4.79,1,8.83,8.83,0,0,1-4.22-1,7.2,7.2,0,0,1-2.91-2.83,8.11,8.11,0,0,1-1-4.11,8.48,8.48,0,0,1,2.41-6.34,8.88,8.88,0,0,1,6.5-2.36,8.28,8.28,0,0,1,4.06.74v4.15a5.62,5.62,0,0,0-3.42-1.15,4.42,4.42,0,0,0-3.36,1.27,4.68,4.68,0,0,0-1.21,3.36,4.51,4.51,0,0,0,1.19,3.3,4.32,4.32,0,0,0,3.23,1.21,6.46,6.46,0,0,0,3.58-1.15Z"/><path class="cls-2" d="M143.23,255.87a9.69,9.69,0,0,1-4.79,1,8.83,8.83,0,0,1-4.22-1,7.2,7.2,0,0,1-2.91-2.83,8.11,8.11,0,0,1-1-4.11,8.48,8.48,0,0,1,2.41-6.34,8.88,8.88,0,0,1,6.5-2.36,8.28,8.28,0,0,1,4.06.74v4.15a5.62,5.62,0,0,0-3.42-1.15,4.42,4.42,0,0,0-3.36,1.27,4.68,4.68,0,0,0-1.21,3.36,4.51,4.51,0,0,0,1.19,3.3,4.32,4.32,0,0,0,3.23,1.21,6.46,6.46,0,0,0,3.58-1.15Z"/><path class="cls-2" d="M155.52,246.89q0-3.41-2.76-3.41a2.67,2.67,0,0,0-2,1,4.18,4.18,0,0,0-1,2.42Zm4.54,3H149.71q.25,3.45,4.35,3.45a8.6,8.6,0,0,0,4.6-1.24v3.53a12.08,12.08,0,0,1-5.72,1.18,7.37,7.37,0,0,1-8.09-8.07,9.56,9.56,0,0,1,1-4.42,7.48,7.48,0,0,1,2.82-3.05,7.8,7.8,0,0,1,4.11-1.1,7,7,0,0,1,5.34,2,7.85,7.85,0,0,1,1.93,5.61Z"/><rect class="cls-2" x="162.34" y="232.95" width="4.9" height="23.49"/><path class="cls-2" d="M180.44,246.89q0-3.41-2.76-3.41a2.67,2.67,0,0,0-2,1,4.18,4.18,0,0,0-1,2.42Zm4.54,3H174.62q.25,3.45,4.35,3.45a8.6,8.6,0,0,0,4.6-1.24v3.53a12.08,12.08,0,0,1-5.72,1.18,7.37,7.37,0,0,1-8.09-8.07,9.56,9.56,0,0,1,1-4.42,7.48,7.48,0,0,1,2.82-3.05,7.8,7.8,0,0,1,4.11-1.1,7,7,0,0,1,5.34,2,7.85,7.85,0,0,1,1.93,5.61Z"/><path class="cls-2" d="M197.6,245a4.2,4.2,0,0,0-2.06-.48,3,3,0,0,0-2.5,1.16,5.13,5.13,0,0,0-.89,3.2v7.58h-4.9V240.57h4.9v2.94h.06q1.16-3.22,4.18-3.22a3.23,3.23,0,0,1,1.21.19Z"/><path class="cls-2" d="M207.85,248.92l-2.88.37q-2.39.29-2.39,2.15a1.8,1.8,0,0,0,.57,1.37,2.22,2.22,0,0,0,1.59.53,2.92,2.92,0,0,0,2.24-.94,3.42,3.42,0,0,0,.88-2.42Zm4.6,7.51h-4.63v-2.28h-.06a5.17,5.17,0,0,1-4.73,2.67,5,5,0,0,1-3.62-1.31,4.66,4.66,0,0,1-1.34-3.49q0-4.6,5.47-5.33l4.31-.57q0-2.6-2.82-2.6a9.51,9.51,0,0,0-5.39,1.69v-3.69a11.66,11.66,0,0,1,2.8-.91,15.17,15.17,0,0,1,3.22-.42q6.79,0,6.79,6.77Z"/><path class="cls-2" d="M225.28,256.25a7.23,7.23,0,0,1-3.27.57q-5.18,0-5.18-5.38v-7.27h-2.57v-3.61h2.57v-3.43l4.88-1.39v4.82h3.56v3.61h-3.56v6.42q0,2.48,2,2.48a3.32,3.32,0,0,0,1.6-.45Z"/><path class="cls-2" d="M232.3,256.44h-4.9V240.57h4.9Zm.4-20.92a2.36,2.36,0,0,1-.78,1.83,2.9,2.9,0,0,1-2,.71,2.86,2.86,0,0,1-2-.73,2.37,2.37,0,0,1-.78-1.81,2.27,2.27,0,0,1,.8-1.8,3,3,0,0,1,2-.7,2.89,2.89,0,0,1,2,.72,2.31,2.31,0,0,1,.79,1.77"/><path class="cls-2" d="M251.11,256.44h-4.88v-8.82q0-3.69-2.63-3.69a2.64,2.64,0,0,0-2.08,1,3.67,3.67,0,0,0-.84,2.49v9h-4.9V240.57h4.9v2.51h.06a5.59,5.59,0,0,1,5.1-2.9q5.27,0,5.27,6.54Z"/><path class="cls-2" d="M265.07,248.81v-1.26a3.79,3.79,0,0,0-.91-2.59,2.92,2.92,0,0,0-2.3-1,3,3,0,0,0-2.56,1.26,6,6,0,0,0-.92,3.59,5.07,5.07,0,0,0,.88,3.15,2.88,2.88,0,0,0,2.42,1.15,3,3,0,0,0,2.46-1.17,4.8,4.8,0,0,0,.94-3.09m4.83,5.81a8.94,8.94,0,0,1-2.57,6.85q-2.57,2.42-7.39,2.42a11.86,11.86,0,0,1-5.08-.91v-4.12a9.73,9.73,0,0,0,4.94,1.43,5.35,5.35,0,0,0,3.83-1.3,4.68,4.68,0,0,0,1.37-3.57v-1.25H265a5.47,5.47,0,0,1-4.94,2.67,6,6,0,0,1-4.81-2.14,8.64,8.64,0,0,1-1.79-5.73,9.79,9.79,0,0,1,2-6.35,6.4,6.4,0,0,1,5.25-2.42,4.8,4.8,0,0,1,4.34,2.23H265v-1.84h4.9Z"/><polygon class="cls-2" points="114.64 285 109.62 285 109.62 275.95 100.41 275.95 100.41 285 95.41 285 95.41 262.78 100.41 262.78 100.41 271.64 109.62 271.64 109.62 262.78 114.64 262.78 114.64 285"/><path class="cls-2" d="M133.68,285H128.8v-2.42h-.08a5.49,5.49,0,0,1-4.85,2.8q-5.52,0-5.52-6.68v-9.58h4.88v9.14q0,3.36,2.67,3.36a2.6,2.6,0,0,0,2.11-.94,3.77,3.77,0,0,0,.78-2.48v-9.08h4.88Z"/><path class="cls-2" d="M148.65,276.68a4.93,4.93,0,0,0-.85-3.08,2.86,2.86,0,0,0-2.4-1.1,3.1,3.1,0,0,0-2.45,1.11,4.2,4.2,0,0,0-1,2.86v1.63a3.77,3.77,0,0,0,.87,2.53,2.85,2.85,0,0,0,2.28,1,3,3,0,0,0,2.6-1.29,6.28,6.28,0,0,0,.91-3.66m5-.06a11.34,11.34,0,0,1-.88,4.59,7,7,0,0,1-2.5,3.09,6.54,6.54,0,0,1-3.74,1.09,5,5,0,0,1-4.43-2.23h-.06V285h-4.9V261.51h4.9v10h.06a5.79,5.79,0,0,1,5.16-2.77,5.71,5.71,0,0,1,4.7,2.08,9,9,0,0,1,1.68,5.8"/><path class="cls-2" d="M86.92,357.93H77.84v-17.5h2.05v15.65h7Z"/><path class="cls-2" d="M91.66,357.93H89.61v-17.5h2.05Z"/><path class="cls-2" d="M95.44,357.22V354.8a4.71,4.71,0,0,0,1,.66,8,8,0,0,0,1.22.49,9.65,9.65,0,0,0,1.29.31,7.18,7.18,0,0,0,1.2.11,4.69,4.69,0,0,0,2.83-.7,2.63,2.63,0,0,0,.62-3.25,3.51,3.51,0,0,0-.86-1,8.6,8.6,0,0,0-1.3-.83l-1.62-.84q-.92-.46-1.71-.94a7.38,7.38,0,0,1-1.38-1,4.37,4.37,0,0,1-.92-1.3,4.44,4.44,0,0,1,.19-3.78,4.5,4.5,0,0,1,1.38-1.46,6.26,6.26,0,0,1,1.95-.85,8.93,8.93,0,0,1,2.23-.28,8.54,8.54,0,0,1,3.77.62v2.31a6.84,6.84,0,0,0-4-1.07,6.53,6.53,0,0,0-1.34.14,3.79,3.79,0,0,0-1.2.46,2.66,2.66,0,0,0-.85.82,2.17,2.17,0,0,0-.33,1.22,2.51,2.51,0,0,0,.25,1.16,2.83,2.83,0,0,0,.74.89,7.29,7.29,0,0,0,1.19.78q.7.38,1.62.83t1.78,1a8.13,8.13,0,0,1,1.48,1.14,5.05,5.05,0,0,1,1,1.38,3.88,3.88,0,0,1,.37,1.73,4.4,4.4,0,0,1-.51,2.19,4.16,4.16,0,0,1-1.37,1.46,6,6,0,0,1-2,.81,10.89,10.89,0,0,1-2.37.25,9.63,9.63,0,0,1-1-.07q-.61-.07-1.25-.2a10,10,0,0,1-1.2-.32A3.74,3.74,0,0,1,95.44,357.22Z"/><path class="cls-2" d="M109.54,357.93v-17.5h5a5.45,5.45,0,0,1,3.6,1.11,3.59,3.59,0,0,1,1.33,2.89,4.26,4.26,0,0,1-.81,2.59,4.34,4.34,0,0,1-2.22,1.56v0a4.46,4.46,0,0,1,2.83,1.34,4.11,4.11,0,0,1,1.06,2.94,4.58,4.58,0,0,1-1.61,3.64,6,6,0,0,1-4.07,1.39Zm2.05-15.65v5.65h2.1a4,4,0,0,0,2.65-.81,2.82,2.82,0,0,0,1-2.29q0-2.55-3.36-2.55Zm0,7.5v6.3h2.78a4.17,4.17,0,0,0,2.8-.85,2.93,2.93,0,0,0,1-2.34q0-3.1-4.22-3.1Z"/><path class="cls-2" d="M130.93,358.22a7.68,7.68,0,0,1-6-2.45,9.1,9.1,0,0,1-2.24-6.38,9.64,9.64,0,0,1,2.28-6.74,8,8,0,0,1,6.21-2.51,7.51,7.51,0,0,1,5.84,2.44,9.13,9.13,0,0,1,2.22,6.38,9.67,9.67,0,0,1-2.27,6.77A7.83,7.83,0,0,1,130.93,358.22Zm.15-16.24a5.64,5.64,0,0,0-4.48,2,8.85,8.85,0,0,0,0,10.43,5.47,5.47,0,0,0,4.38,2,5.75,5.75,0,0,0,4.54-1.88,7.68,7.68,0,0,0,1.66-5.26,8,8,0,0,0-1.61-5.36A5.53,5.53,0,0,0,131.08,342Z"/><path class="cls-2" d="M156.83,357.93h-2.51l-9-14a5.83,5.83,0,0,1-.56-1.1h-.07a18,18,0,0,1,.1,2.4v12.65h-2.05v-17.5h2.66l8.76,13.73q.55.85.71,1.17h0a18.57,18.57,0,0,1-.12-2.58V340.42h2.05Z"/><path class="cls-2" d="M160.65,361h-1l1.83-5.8h1.25Z"/><path class="cls-2" d="M186.15,357.93l-10.42-14.15a8.49,8.49,0,0,1-.56-.85l-.16-.24h0q0,.32,0,.77v14.48h-1.21v-17.5h.93l10.35,14q.34.46.74,1.12h.06q-.06-.85-.06-1.46V340.42H187v17.5Z"/><path class="cls-2" d="M198.7,358.23a7.54,7.54,0,0,1-5.91-2.47,9.25,9.25,0,0,1-2.2-6.41,9.66,9.66,0,0,1,2.26-6.71,7.89,7.89,0,0,1,6.18-2.52,7.36,7.36,0,0,1,5.73,2.42A9.11,9.11,0,0,1,207,348.9a9.83,9.83,0,0,1-2.25,6.84A7.69,7.69,0,0,1,198.7,358.23Zm.12-17a6.44,6.44,0,0,0-5,2.21,8.36,8.36,0,0,0-2,5.79A8.45,8.45,0,0,0,193.7,355a6.28,6.28,0,0,0,5,2.14,6.54,6.54,0,0,0,5.14-2.12,8.55,8.55,0,0,0,1.89-5.9,8.42,8.42,0,0,0-1.85-5.79A6.39,6.39,0,0,0,198.82,341.23Z"/><path class="cls-2" d="M216.09,357.93h-.9l-6.4-17.5h1.36l5.07,14.1a9.9,9.9,0,0,1,.45,1.66h0a12.55,12.55,0,0,1,.5-1.68l5.38-14.07h1.29Z"/><path class="cls-2" d="M242.56,341.58q-.4.7-1,1.73t-1.2,2.33q-.63,1.29-1.29,2.78t-1.23,3.08q-.57,1.59-1,3.22a23.83,23.83,0,0,0-.63,3.2h-2.15a24.44,24.44,0,0,1,.68-3.19q.46-1.63,1-3.2t1.23-3q.65-1.45,1.26-2.67t1.12-2.15q.51-.93.81-1.46h-8.78v-1.81h11.13Z"/><path class="cls-2" d="M252.13,351.75h-6.67v-1.57h6.67Z"/><path class="cls-2" d="M262.54,357.93h-2V342.8a4.61,4.61,0,0,1-.68.53,11,11,0,0,1-1,.59q-.56.29-1.17.55a8.52,8.52,0,0,1-1.2.4v-2a11.54,11.54,0,0,0,1.4-.49q.74-.31,1.45-.7t1.35-.81a10.85,10.85,0,0,0,1.1-.82h.76Z"/><path class="cls-2" d="M279.63,349.1a17.24,17.24,0,0,1-.4,3.89,9.08,9.08,0,0,1-1.15,2.86,5.17,5.17,0,0,1-1.84,1.77,5,5,0,0,1-2.48.6,4.72,4.72,0,0,1-2.35-.58,4.92,4.92,0,0,1-1.74-1.69,8.57,8.57,0,0,1-1.07-2.73,16.87,16.87,0,0,1-.37-3.71,19.06,19.06,0,0,1,.38-4.05,9.27,9.27,0,0,1,1.13-2.95,5,5,0,0,1,1.85-1.79,5.19,5.19,0,0,1,2.53-.6Q279.63,340.13,279.63,349.1Zm-2.05.2q0-7.47-3.55-7.47-3.75,0-3.75,7.6,0,7.09,3.67,7.09T277.58,349.29Z"/></svg>