<svg id="Layer_1" data-name="Layer 1" xmlns="http://www.w3.org/2000/svg" viewBox="0 0 835.28 376.7"><defs><style>.cls-1{fill:#9b3e96;}.cls-2{fill:#fff;}.cls-3{fill:#ececeb;}.cls-4{fill:#010101;}.cls-5{fill:#d93191;}.cls-6{fill:#d4d5d5;}.cls-7{fill:#c8aa88;}.cls-8{fill:#b8977d;}.cls-9{fill:#aa63a8;}.cls-10{fill:#552260;}.cls-11{fill:#9fa2a3;}</style></defs><title>ReactorLandingpage</title><rect class="cls-1" width="835.28" height="376.7"/><path class="cls-2" d="M53.6,178.1v-3.42a17.42,17.42,0,0,0,9.45,3q5.09,0,7.72-2.1a7.11,7.11,0,0,0,2.63-5.89,7.67,7.67,0,0,0-1.77-5.31q-1.77-2-7.67-5.4-6.6-3.84-8.36-6.43a10.39,10.39,0,0,1-1.76-6,10.11,10.11,0,0,1,3.57-7.81q3.57-3.21,9.54-3.21a24.23,24.23,0,0,1,7.75,1.3V140a19.53,19.53,0,0,0-8.14-1.73,10.34,10.34,0,0,0-7,2.24A7.2,7.2,0,0,0,57,146.17a7.63,7.63,0,0,0,1.77,5.3q1.77,2,7.64,5.36,6.08,3.45,8.1,6.13a10,10,0,0,1,2,6.16A10.5,10.5,0,0,1,73,177.26q-3.47,3.15-9.79,3.15a22.61,22.61,0,0,1-5.16-.7A16.71,16.71,0,0,1,53.6,178.1Z"/><path class="cls-2" d="M86.53,140.84a2.33,2.33,0,0,1-2.3-2.36,2,2,0,0,1,.71-1.62,2.36,2.36,0,0,1,1.59-.62,2.47,2.47,0,0,1,1.65.61,2,2,0,0,1,.71,1.63,2.38,2.38,0,0,1-2.36,2.36Zm-1.36,38.81v-31H88v31Z"/><path class="cls-2" d="M110.15,179.22a9.62,9.62,0,0,1-4.09,1q-6.87,0-6.87-8.23V151.19H93.62v-2.54h5.57V140.6l1.39-.48q.73-.21,1.39-.45v9h8.17v2.54H102v20.46a8.24,8.24,0,0,0,1,4.65,3.91,3.91,0,0,0,3.44,1.44,7.68,7.68,0,0,0,3.72-1.12Z"/><path class="cls-2" d="M155.28,179.65V174h-.12a11.31,11.31,0,0,1-4.48,4.66,13.06,13.06,0,0,1-6.69,1.73,11.79,11.79,0,0,1-9.34-4.18Q131,172,131,164.69q0-7.51,4-12.15a12.82,12.82,0,0,1,10.25-4.65q7,0,9.93,5.72h.12V133.75h2.79v45.89Zm0-18.86a10.52,10.52,0,0,0-2.74-7.34,9.47,9.47,0,0,0-7.37-3,10.11,10.11,0,0,0-8.05,3.74q-3.18,3.74-3.18,10.28t2.86,9.91a9.09,9.09,0,0,0,7.37,3.5q5.3,0,8.2-3.28a11.66,11.66,0,0,0,2.91-8Z"/><path class="cls-2" d="M180.44,180.41q-6.78,0-10.73-4.47t-4-11.61q0-7.72,4.13-12.08a14.3,14.3,0,0,1,10.88-4.36q6.63,0,10.47,4.33t3.84,12q0,7.24-3.92,11.72T180.44,180.41Zm.21-30a11.06,11.06,0,0,0-8.73,3.69q-3.25,3.69-3.25,10.26,0,6.08,3.18,9.78a10.86,10.86,0,0,0,8.69,3.69q5.6,0,8.63-3.63t3-10.08q0-6.63-3-10.17T180.65,150.43Z"/><path class="cls-2" d="M229.06,179.65h-2.6l-6.75-23.37a19.11,19.11,0,0,1-.48-2.6h-.15a15.83,15.83,0,0,1-.61,2.54l-7.57,23.43h-2.6l-9.35-31H202l7.21,24.73a15.14,15.14,0,0,1,.42,2.6h.24a13.2,13.2,0,0,1,.58-2.6l7.87-24.73h1.91l7,24.73a17.4,17.4,0,0,1,.42,2.6h.24a10,10,0,0,1,.51-2.6l7.36-24.73h2.88Z"/><path class="cls-2" d="M265.81,179.65v-18q0-11.17-8.05-11.17a9.34,9.34,0,0,0-7.36,3.28,11.9,11.9,0,0,0-2.88,8.13v17.8h-2.79v-31h2.79v5.63h.12a11.22,11.22,0,0,1,10.6-6.39,9.25,9.25,0,0,1,7.69,3.34q2.66,3.35,2.66,9.55v18.86Z"/><path class="cls-2" d="M78.69,240.17H69.79v-4.38h-.12a9.94,9.94,0,0,1-9.08,5.12,9.5,9.5,0,0,1-7-2.52,9,9,0,0,1-2.55-6.72q0-8.88,10.51-10.25l8.28-1.1q0-5-5.42-5a18.5,18.5,0,0,0-10.37,3.25v-7.09a23.35,23.35,0,0,1,5.38-1.79,28.29,28.29,0,0,1,6.21-.77q13,0,13,13Zm-8.85-12.39v-2.05l-5.54.71q-4.59.59-4.59,4.14a3.42,3.42,0,0,0,1.12,2.64,4.29,4.29,0,0,0,3,1,5.57,5.57,0,0,0,4.32-1.83A6.62,6.62,0,0,0,69.85,227.78Z"/><path class="cls-2" d="M115.6,240.17h-9.38V223.22q0-7.09-5.06-7.09a5,5,0,0,0-4,1.88,7.15,7.15,0,0,0-1.58,4.77v17.39H86.14v-30.5h9.41v4.83h.12a10.78,10.78,0,0,1,9.8-5.57q10.13,0,10.13,12.57Z"/><path class="cls-2" d="M152.89,240.17h-9.41V236h-.12a10.55,10.55,0,0,1-9.44,4.94,11.56,11.56,0,0,1-9.2-4q-3.48-4-3.49-11.27,0-7.57,3.84-12.12a12.53,12.53,0,0,1,10.07-4.56q5.9,0,8.22,4.23h.12V195h9.41Zm-9.23-14.83V223a7.22,7.22,0,0,0-1.73-4.94,6.1,6.1,0,0,0-9.38.49,11.41,11.41,0,0,0-1.76,6.75,9.87,9.87,0,0,0,1.7,6.2,6,6,0,0,0,9.37-.12A9.56,9.56,0,0,0,143.65,225.34Z"/><path class="cls-2" d="M196.08,239.81a13.92,13.92,0,0,1-6.28,1.1q-9.95,0-9.95-10.33v-14H174.9v-6.94h4.94v-6.58l9.38-2.68v9.26h6.85v6.94h-6.85v12.33q0,4.77,3.78,4.77a6.38,6.38,0,0,0,3.07-.86Z"/><path class="cls-2" d="M230.36,240.17H221v-4.65h-.15q-3.48,5.39-9.32,5.39-10.6,0-10.6-12.84V209.67h9.38v17.57q0,6.46,5.12,6.46a5.07,5.07,0,0,0,4.05-1.77,7.15,7.15,0,0,0,1.52-4.81V209.67h9.38Z"/><path class="cls-2" d="M258.18,218.16a8.17,8.17,0,0,0-4-.92,5.71,5.71,0,0,0-4.8,2.25,9.81,9.81,0,0,0-1.73,6.12v14.56h-9.41v-30.5h9.41v5.66h.12q2.23-6.19,8-6.2a6.07,6.07,0,0,1,2.32.36Z"/><path class="cls-2" d="M292.19,240.17h-9.38V223.22q0-7.09-5.06-7.09a5,5,0,0,0-4,1.88,7.15,7.15,0,0,0-1.58,4.77v17.39h-9.41v-30.5h9.41v4.83h.12a10.79,10.79,0,0,1,9.8-5.57q10.13,0,10.13,12.57Z"/><path class="cls-2" d="M321.23,204.84a5.5,5.5,0,0,1-3.9-1.42,4.56,4.56,0,0,1-1.52-3.47,4.4,4.4,0,0,1,1.52-3.46,6.37,6.37,0,0,1,7.82,0,4.41,4.41,0,0,1,1.5,3.46,4.54,4.54,0,0,1-1.5,3.51A5.59,5.59,0,0,1,321.23,204.84Zm4.65,35.33h-9.41v-30.5h9.41Z"/><path class="cls-2" d="M352.24,239.81a13.91,13.91,0,0,1-6.28,1.1q-9.95,0-9.95-10.33v-14h-4.94v-6.94H336v-6.58l9.38-2.68v9.26h6.85v6.94h-6.85v12.33q0,4.77,3.78,4.77a6.37,6.37,0,0,0,3.07-.86Z"/><path class="cls-2" d="M403.35,240.17H394v-4.65h-.15q-3.48,5.39-9.32,5.39-10.6,0-10.6-12.84V209.67h9.38v17.57q0,6.46,5.12,6.46a5.07,5.07,0,0,0,4.05-1.77,7.15,7.15,0,0,0,1.52-4.81V209.67h9.38Z"/><path class="cls-2" d="M420.81,236.62h-.12V254.2h-9.41V209.67h9.41v4.59h.12a11.06,11.06,0,0,1,9.8-5.33q5.93,0,9.16,4.07T443,224.06q0,7.62-3.77,12.24a12.28,12.28,0,0,1-10,4.62A9.49,9.49,0,0,1,420.81,236.62Zm-.27-12.51v2.44a7.76,7.76,0,0,0,1.67,5.15,5.43,5.43,0,0,0,4.38,2,5.77,5.77,0,0,0,5-2.49q1.77-2.49,1.77-7,0-8-6.25-8a5.87,5.87,0,0,0-4.72,2.19A8.73,8.73,0,0,0,420.54,224.11Z"/><path class="cls-2" d="M455.15,240.85a5.54,5.54,0,0,1-3.93-1.45,4.61,4.61,0,0,1-1.55-3.5,4.46,4.46,0,0,1,1.56-3.51,5.73,5.73,0,0,1,3.92-1.37,5.57,5.57,0,0,1,3.9,1.39,4.53,4.53,0,0,1,1.52,3.5,4.63,4.63,0,0,1-1.5,3.54A5.52,5.52,0,0,1,455.15,240.85Zm4.88-43.4-1.16,29.43h-7.62l-1.1-29.43Z"/><path class="cls-3" d="M804.79,296c1.4,2.39.28,4.34-2.49,4.34H620.56c-2.77,0-3.89-2-2.49-4.34l13.4-22.91a9.73,9.73,0,0,1,7.57-4.35H783.82a9.74,9.74,0,0,1,7.57,4.35Z"/><path class="cls-4" d="M640.8,171.92H782.05a6.79,6.79,0,0,1,6.79,6.79V262a6.8,6.8,0,0,1-6.8,6.8H640.8A6.8,6.8,0,0,1,634,262V178.72A6.8,6.8,0,0,1,640.8,171.92Z"/><rect class="cls-5" x="643.09" y="179.84" width="136.68" height="81.01"/><path class="cls-6" d="M805.18,298.93,634.25,270.34a8.66,8.66,0,0,0-2.79,2.77L618.06,296c-1.4,2.39-.28,4.34,2.49,4.34H802.3a2.94,2.94,0,0,0,2.88-1.44"/><path class="cls-7" d="M765.11,127.75c2.84.93,4.54,3.63,3.76,6s-3.73,3.56-6.58,2.63l-1.1-.36c-2.84-.93-4.54-3.63-3.76-6s3.73-3.56,6.58-2.63Z"/><path class="cls-7" d="M768.67,117.53c2.84.93,4.54,3.63,3.76,6s-3.73,3.56-6.58,2.64l-1.11-.36c-2.84-.93-4.54-3.63-3.76-6s3.73-3.56,6.58-2.64Z"/><path class="cls-7" d="M775.06,100.59a4.79,4.79,0,1,1-4.79-4.79,4.79,4.79,0,0,1,4.79,4.79"/><path class="cls-8" d="M746.3,145a17.37,17.37,0,1,1-17.37-17.37A17.37,17.37,0,0,1,746.3,145"/><path class="cls-4" d="M755.29,150.93a2.81,2.81,0,0,1-3.53,1.82l-35.91-11.5a2.82,2.82,0,0,1-1.81-3.53l24.09-75.19a2.81,2.81,0,0,1,3.53-1.82l35.91,11.5a2.81,2.81,0,0,1,1.81,3.53Z"/><rect class="cls-5" x="715.03" y="85.63" width="64.22" height="39.51" transform="translate(418.82 784.75) rotate(-72.24)"/><path class="cls-7" d="M759.67,137.61c2.84.77,4.62,3.38,4,5.79s-3.52,3.75-6.35,3-4.62-3.38-4-5.79,3.52-3.75,6.35-3"/><path class="cls-9" d="M758.5,193.56a34.22,34.22,0,0,0-2.92-2.39,34.9,34.9,0,0,0-21.17-7,36.06,36.06,0,0,0-36.18,35.93,36.05,36.05,0,0,0,19.58,32.2,36.13,36.13,0,0,0,8.86,3.17,34.85,34.85,0,0,0,34.33-11,36.06,36.06,0,0,0-2.49-50.93"/><path class="cls-2" d="M734.4,184.22a36.05,36.05,0,0,0-36.18,35.93,36,36,0,0,0,19.57,32.2,36,36,0,0,0,8.86,3.17l7.62-35.24,21.3-29.09a34.89,34.89,0,0,0-21.17-7"/><path class="cls-10" d="M734.28,220.27l-7.62,35.24a34.85,34.85,0,0,0,34.33-11Z"/><path class="cls-6" d="M734.28,220.27l21.3-29.09a34.89,34.89,0,0,0-21.17-7Z"/><path class="cls-9" d="M757.35,93.17A15.48,15.48,0,0,0,756,92.08a15.92,15.92,0,0,0-9.66-3.18,16.45,16.45,0,0,0-16.51,16.39A16.44,16.44,0,0,0,738.78,120a16.43,16.43,0,0,0,4,1.45,15.89,15.89,0,0,0,15.66-5,16.45,16.45,0,0,0-1.14-23.23"/><path class="cls-2" d="M746.36,88.91a16.44,16.44,0,0,0-16.5,16.39A16.44,16.44,0,0,0,738.78,120a16.45,16.45,0,0,0,4,1.45l3.48-16.07L756,92.08a15.91,15.91,0,0,0-9.66-3.18"/><path class="cls-10" d="M746.3,105.35l-3.48,16.07a15.9,15.9,0,0,0,15.66-5Z"/><path class="cls-6" d="M746.3,105.35,756,92.08a15.91,15.91,0,0,0-9.66-3.18Z"/><path class="cls-7" d="M703.13,136.33l13.65-34.84s23.18-1.84,17.49,1.31-5.65,4.61-5.65,4.61l-3.26,10.34s10.54,15.28,5.06,37.35c-14.14-8.77-27.29-18.77-27.29-18.77"/><path class="cls-7" d="M740.21,95.17l-23.43,6.35a12.14,12.14,0,1,0,23.43-6.35"/><path class="cls-1" d="M697.46,143.09l-43.94,63.69-10.43,2.11v45.63l28.14-5.68a22.37,22.37,0,0,0,14-9.22l49.07-71.12Z"/><path class="cls-9" d="M697.46,143.09l-43.94,63.69-10.43,2.11s14.79,8.62,18.08,3.85Z"/><path class="cls-10" d="M679.86,228.41a22.36,22.36,0,0,1-14,9.22l-22.79,4.6v12.28l28.14-5.68a22.37,22.37,0,0,0,14-9.22l49.07-71.12Z"/><polyline class="cls-2" points="739.34 161.29 702.45 135.86 697.46 143.1 734.28 168.49"/><polygon class="cls-11" points="739.49 140.63 735.97 139.88 735.17 142.31 738.36 144.11 739.49 140.63"/></svg>